<mxfile host="app.diagrams.net" modified="2023-08-04T05:48:15.407Z" agent="Mozilla/5.0 (Windows NT 10.0; Win64; x64) AppleWebKit/537.36 (KHTML, like Gecko) Chrome/114.0.0.0 Safari/537.36" etag="8YtdDxmEdQCfBKYMeWg-" version="21.6.2" type="github">
  <diagram name="页-1" id="UWyrkO0-dsNFeZ8m2fK4">
    <mxGraphModel dx="3980" dy="2120" grid="0" gridSize="10" guides="1" tooltips="1" connect="1" arrows="1" fold="1" page="0" pageScale="1" pageWidth="827" pageHeight="1169" math="0" shadow="0">
      <root>
        <mxCell id="0" />
        <mxCell id="1" parent="0" />
        <UserObject label="" tags="背景" id="NLWAjB_bUS7uM9UPZkxF-2">
          <mxCell style="vsdxID=139;fillColor=none;gradientColor=none;shape=stencil(nZBLDoAgDERP0z3SIyjew0SURgSD+Lu9kMZoXLhwN9O+tukAlrNpJg1SzDH4QW/URgNYgZTkjA4UkwJUgGXng+6DX1zLfmoymdXo17xh5zmRJ6Q42BWCfc2oJfdAr+Yv+AP9Cb7OJ3H/2JG1HNGz/84klThPVCc=);strokeColor=#000000;strokeWidth=3;points=[[1,0.5,0],[0.5,0,0],[0.5,0.5,0],[0.5,0.5,0]];labelBackgroundColor=none;rounded=0;html=1;whiteSpace=wrap;" vertex="1" parent="1">
            <mxGeometry x="2143" y="2348" width="520" height="428" as="geometry" />
          </mxCell>
        </UserObject>
        <UserObject label="" tags="背景" id="NLWAjB_bUS7uM9UPZkxF-3">
          <mxCell style="vsdxID=130;fillColor=none;gradientColor=none;shape=stencil(nZFLDsIwDERP4y0KiYTEupQLcIKIGGIRkiot5XN60g5IpQsWzcqeebGlMZmq9bZh0qrtcrrwXVznyexIa4mes3SlIlOTqU4p8zmnW3ToG1tIrUaFHf6sB1orm48HeTE0s9r+vg0gTLmmftj+AKtgPT/TFPo90CBxgn7NRfAfdCE4W1+KMR8kJyEg3qk/z7NIuIWp3w==);strokeColor=#000000;strokeWidth=3;points=[[1,0.5,0],[0.5,0,0],[0.5,0.5,0],[0.5,0.5,0]];labelBackgroundColor=none;rounded=1;html=1;whiteSpace=wrap;" vertex="1" parent="1">
            <mxGeometry x="2003" y="1318" width="940" height="593" as="geometry" />
          </mxCell>
        </UserObject>
        <UserObject label="" tags="背景" id="NLWAjB_bUS7uM9UPZkxF-4">
          <mxCell style="vsdxID=8;fillColor=none;gradientColor=none;shape=stencil(xVTbDoIwDP2aPUImAwzPqP+xyIDFyUg3Bf/e4TA6LjEYg29tz+m6025FJFUlrRkKsNIgT6zhmS4R2aEg4FXJgGtjIbJHJM0lsALkpcqsX9OO2Vlnee1OaG1e4ofbLinANxvYYPzwD5YtePXOxn5EfkincDQYvO5iydCzw8SP+1Dr5j/Pi3q39WjLlQdSU81lZcEeExQK5plSXi5o4UCqYawehSe1zFSeEULGSsjGUTLuzWpS5kpPk4cP5Gvu8h79a9ZLJh27IiLsb905z32wNQb94XMb47UXci6EXSvv+HCPmJDdQWR/Bw==);strokeColor=#000000;strokeWidth=3;points=[[1,0.5,0],[0.5,0.5,0],[0.5,0,0],[0.03,0.15,0],[0.97,0.15,0],[0.03,0.85,0],[0.97,0.85,0]];labelBackgroundColor=none;rounded=0;html=1;whiteSpace=wrap;" vertex="1" parent="1">
            <mxGeometry x="2143" y="2188" width="526" height="99" as="geometry" />
          </mxCell>
        </UserObject>
        <UserObject label="" tags="背景" id="NLWAjB_bUS7uM9UPZkxF-5">
          <mxCell style="vsdxID=9;fillColor=none;gradientColor=none;shape=stencil(nZFLDsIwDERP4y0KiYTEupQLcIKIGGIRkiot5XN60g5IpQsWzcqeebGlMZmq9bZh0qrtcrrwXVznyexIa4mes3SlIlOTqU4p8zmnW3ToG1tIrUaFHf6sB1orm48HeTE0s9r+vg0gTLmmftj+AKtgPT/TFPo90CBxgn7NRfAfdCE4W1+KMR8kJyEg3qk/z7NIuIWp3w==);strokeColor=#000000;strokeWidth=3;points=[[1,0.5,0],[0.5,0,0],[0.5,0.5,0],[0.5,0.5,0]];labelBackgroundColor=none;rounded=1;html=1;whiteSpace=wrap;" vertex="1" parent="1">
            <mxGeometry x="943" y="1318" width="1040" height="593" as="geometry" />
          </mxCell>
        </UserObject>
        <UserObject label="&lt;div style=&quot;font-size: 1px&quot;&gt;&lt;font style=&quot;font-size:33.87px;font-family:SimSun;color:#000000;direction:ltr;letter-spacing:0px;line-height:120%;opacity:1&quot;&gt;APIServer&lt;br/&gt;&lt;/font&gt;&lt;/div&gt;" tags="背景" id="NLWAjB_bUS7uM9UPZkxF-6">
          <mxCell style="verticalAlign=middle;align=center;overflow=width;vsdxID=11;fillColor=none;gradientColor=none;shape=stencil(nZFLDsIwDERP4y0KiYTEupQLcIKIGGIRkiot5XN60g5IpQsWzcqeebGlMZmq9bZh0qrtcrrwXVznyexIa4mes3SlIlOTqU4p8zmnW3ToG1tIrUaFHf6sB1orm48HeTE0s9r+vg0gTLmmftj+AKtgPT/TFPo90CBxgn7NRfAfdCE4W1+KMR8kJyEg3qk/z7NIuIWp3w==);strokeColor=#000000;strokeWidth=3;points=[[0.5,1,0],[1,0.5,0],[0.5,0,0],[0,0.5,0],[0.5,0.5,0]];labelBackgroundColor=none;rounded=1;html=1;whiteSpace=wrap;" vertex="1" parent="1">
            <mxGeometry x="1503" y="1363" width="160" height="298" as="geometry" />
          </mxCell>
        </UserObject>
        <UserObject label="&lt;div style=&quot;font-size: 1px&quot;&gt;&lt;font style=&quot;font-size:33.87px;font-family:Calibri;color:#000000;direction:ltr;letter-spacing:0px;line-height:120%;opacity:1&quot;&gt;计算中心控制器（CPCenterController）&lt;br/&gt;&lt;/font&gt;&lt;/div&gt;" tags="背景" id="NLWAjB_bUS7uM9UPZkxF-7">
          <mxCell style="verticalAlign=middle;align=center;overflow=width;vsdxID=12;fillColor=none;gradientColor=none;shape=stencil(nZFLDsIwDERP4y0KiYTEupQLcIKIGGIRkiot5XN60g5IpQsWzcqeebGlMZmq9bZh0qrtcrrwXVznyexIa4mes3SlIlOTqU4p8zmnW3ToG1tIrUaFHf6sB1orm48HeTE0s9r+vg0gTLmmftj+AKtgPT/TFPo90CBxgn7NRfAfdCE4W1+KMR8kJyEg3qk/z7NIuIWp3w==);strokeColor=#000000;strokeWidth=3;points=[[1,0.5,0],[0.5,0,0],[0.5,0.5,0],[0.5,0.5,0]];labelBackgroundColor=none;rounded=1;html=1;whiteSpace=wrap;" vertex="1" parent="1">
            <mxGeometry x="1212" y="1358" width="264" height="152" as="geometry" />
          </mxCell>
        </UserObject>
        <UserObject label="" tags="背景" id="NLWAjB_bUS7uM9UPZkxF-8">
          <mxCell style="vsdxID=13;fillColor=none;gradientColor=none;shape=stencil(vVJBDsIgEHwNRwxCNPFc6wd8AbHbloilWahFXy/tYtIaTx7ktDs7zCwZmCp8q3tgUviA7gqjqULL1JFJaboW0IRUMVUyVdQOoUE3dBX1vU5MKWYEKrqzndhSaLyczRMIU5vD+uyJRCo3d5/cI3EFjR5ZjdoTMZPoZJeZckdUzNzcxvfNr0oich2N5+iCDsZ1K1OrsQGeXHhtdbN6jx8B+gX8817/2yoVc0AUnbGW8l3OPwNNEH0GVb4A);strokeColor=#000000;strokeWidth=3;points=[[1,0.5,0],[0.5,0.5,0],[0.5,0,0],[0.5,0.2,0]];labelBackgroundColor=none;rounded=1;html=1;whiteSpace=wrap;" vertex="1" parent="1">
            <mxGeometry x="1504" y="1722" width="156" height="152" as="geometry" />
          </mxCell>
        </UserObject>
        <mxCell id="NLWAjB_bUS7uM9UPZkxF-9" style="vsdxID=14;fillColor=none;gradientColor=none;shape=stencil(nZFBDsIgEEVPwxJDIZp0XesFPAGx05aI0FC06OmlHUyKUReymj885gOfiGrs5QCEs9E7e4ZJNb4nYk84V6YHp3ysiKiJqFrroHP2ahrUg4wkZ0sHGjxTzDRn0p2O6gHYE5syXzuEcMrF3mb3gCzDrTuqEuUByTh0tkvkNqEusUXS4SU/jmKByqBG6qyXXlmTuWrpOqDRhrZadtmDxglgWLWzi2ll4Ltz8YP9l8w/JhZLFpiS0hqjXO+/ZxdbmLuonw==);strokeColor=#000000;strokeWidth=3;points=[[0,0.5,0],[1,0.5,0],[0.5,1,0],[0.5,0,0],[0.5,0.2,0]];labelBackgroundColor=none;rounded=1;html=1;whiteSpace=wrap;" vertex="1" parent="NLWAjB_bUS7uM9UPZkxF-8">
          <mxGeometry width="156" height="152" as="geometry" />
        </mxCell>
        <mxCell id="NLWAjB_bUS7uM9UPZkxF-10" value="&lt;div style=&quot;font-size: 1px&quot;&gt;&lt;font style=&quot;font-size:33.87px;font-family:SimSun;color:#000000;direction:ltr;letter-spacing:0px;line-height:120%;opacity:1&quot;&gt;ETCD&lt;br/&gt;&lt;/font&gt;&lt;/div&gt;" style="text;vsdxID=13;fillColor=none;gradientColor=none;strokeColor=none;strokeWidth=3;points=[[1,0.5,0],[0.5,0.5,0],[0.5,0,0],[0.5,0.2,0]];labelBackgroundColor=none;rounded=1;html=1;whiteSpace=wrap;verticalAlign=middle;align=center;overflow=width;;html=1;" vertex="1" parent="NLWAjB_bUS7uM9UPZkxF-8">
          <mxGeometry width="156" height="152" as="geometry" />
        </mxCell>
        <UserObject label="&lt;div style=&quot;font-size: 1px&quot;&gt;&lt;font style=&quot;font-size:33.87px;font-family:Calibri;color:#000000;direction:ltr;letter-spacing:0px;line-height:120%;opacity:1&quot;&gt;作业控制器&lt;br/&gt;（JobController）&lt;br/&gt;&lt;/font&gt;&lt;/div&gt;" tags="背景" id="NLWAjB_bUS7uM9UPZkxF-11">
          <mxCell style="verticalAlign=middle;align=center;overflow=width;vsdxID=20;fillColor=none;gradientColor=none;shape=stencil(nZFLDsIwDERP4y0KiYTEupQLcIKIGGIRkiot5XN60g5IpQsWzcqeebGlMZmq9bZh0qrtcrrwXVznyexIa4mes3SlIlOTqU4p8zmnW3ToG1tIrUaFHf6sB1orm48HeTE0s9r+vg0gTLmmftj+AKtgPT/TFPo90CBxgn7NRfAfdCE4W1+KMR8kJyEg3qk/z7NIuIWp3w==);strokeColor=#000000;strokeWidth=3;points=[[1,0.5,0],[0.5,0,0],[0.5,0.5,0],[0.5,0.5,0]];labelBackgroundColor=none;rounded=1;html=1;whiteSpace=wrap;" vertex="1" parent="1">
            <mxGeometry x="1743" y="1538" width="220" height="152" as="geometry" />
          </mxCell>
        </UserObject>
        <UserObject label="&lt;div style=&quot;font-size: 1px&quot;&gt;&lt;font style=&quot;font-size:33.87px;font-family:Calibri;color:#000000;direction:ltr;letter-spacing:0px;line-height:120%;opacity:1&quot;&gt;作业调度器&lt;br/&gt;（JobScheduler）&lt;br/&gt;&lt;/font&gt;&lt;/div&gt;" tags="背景" id="NLWAjB_bUS7uM9UPZkxF-12">
          <mxCell style="verticalAlign=middle;align=center;overflow=width;vsdxID=21;fillColor=none;gradientColor=none;shape=stencil(nZFLDsIwDERP4y0KiYTEupQLcIKIGGIRkiot5XN60g5IpQsWzcqeebGlMZmq9bZh0qrtcrrwXVznyexIa4mes3SlIlOTqU4p8zmnW3ToG1tIrUaFHf6sB1orm48HeTE0s9r+vg0gTLmmftj+AKtgPT/TFPo90CBxgn7NRfAfdCE4W1+KMR8kJyEg3qk/z7NIuIWp3w==);strokeColor=#000000;strokeWidth=3;points=[[1,0.5,0],[0.5,0,0],[0.5,0.5,0],[0.5,0.5,0]];labelBackgroundColor=none;rounded=1;html=1;whiteSpace=wrap;" vertex="1" parent="1">
            <mxGeometry x="1743" y="1358" width="220" height="152" as="geometry" />
          </mxCell>
        </UserObject>
        <UserObject label="&lt;div style=&quot;font-size: 1px&quot;&gt;&lt;font style=&quot;font-size:33.87px;font-family:SimSun;color:#000000;direction:ltr;letter-spacing:0px;line-height:120%;opacity:1&quot;&gt;虚拟机群控制器&lt;br/&gt;（CPCenterController）&lt;br/&gt;&lt;/font&gt;&lt;/div&gt;" tags="背景" id="NLWAjB_bUS7uM9UPZkxF-13">
          <mxCell style="verticalAlign=middle;align=center;overflow=width;vsdxID=22;fillColor=none;gradientColor=none;shape=stencil(nZFLDsIwDERP4y0KiYTEupQLcIKIGGIRkiot5XN60g5IpQsWzcqeebGlMZmq9bZh0qrtcrrwXVznyexIa4mes3SlIlOTqU4p8zmnW3ToG1tIrUaFHf6sB1orm48HeTE0s9r+vg0gTLmmftj+AKtgPT/TFPo90CBxgn7NRfAfdCE4W1+KMR8kJyEg3qk/z7NIuIWp3w==);strokeColor=#000000;strokeWidth=3;points=[[1,0.5,0],[0.5,0,0],[0.5,0.5,0],[0.5,0.5,0]];labelBackgroundColor=none;rounded=1;html=1;whiteSpace=wrap;" vertex="1" parent="1">
            <mxGeometry x="1210" y="1538" width="264" height="152" as="geometry" />
          </mxCell>
        </UserObject>
        <UserObject label="&lt;div style=&quot;font-size: 1px&quot;&gt;&lt;font style=&quot;font-size:33.87px;font-family:Calibri;color:#000000;direction:ltr;letter-spacing:0px;line-height:120%;opacity:1&quot;&gt;业务适配器&lt;br/&gt;&lt;/font&gt;&lt;/div&gt;" tags="背景" id="NLWAjB_bUS7uM9UPZkxF-14">
          <mxCell style="verticalAlign=middle;align=center;overflow=width;vsdxID=24;fillColor=none;gradientColor=none;shape=stencil(lZHdDsIgDIWfppcSoBp2P+d7LBkTIsLCmD9vL9gLpybT3Z22X5uTU8B6NO2gQfIxxXDSV9slA7gHKa03OtqUFWADWPch6mMMk++oHtpCFnUOl3LhRnuqYpUqW5LfqcOf1YFgZ/0MloIJ/BfeKKa2b/Bu1WnBF/Bv24u44KvM/Agli1ecvXWOvjGff8afW/Q6bB4=);strokeColor=#000000;strokeWidth=3;points=[[0.5,0.5,0],[1.08,0.5,0],[0.79,0.5,0],[0.21,0.5,0],[-0.08,0.5,0],[0.21,0,0],[0.79,0,0]];labelBackgroundColor=none;rounded=0;html=1;whiteSpace=wrap;" vertex="1" parent="1">
            <mxGeometry x="2170" y="2204" width="220" height="68" as="geometry" />
          </mxCell>
        </UserObject>
        <UserObject label="&lt;div style=&quot;font-size: 1px&quot;&gt;&lt;font style=&quot;font-size:33.87px;font-family:SimSun;color:#000000;direction:ltr;letter-spacing:0px;line-height:120%;opacity:1&quot;&gt;数据适配器&lt;br/&gt;&lt;/font&gt;&lt;/div&gt;" tags="背景" id="NLWAjB_bUS7uM9UPZkxF-15">
          <mxCell style="verticalAlign=middle;align=center;overflow=width;vsdxID=27;fillColor=none;gradientColor=none;shape=stencil(lZHdDsIgDIWfppcSoBp2P+d7LBkTIsLCmD9vL9gLpybT3Z22X5uTU8B6NO2gQfIxxXDSV9slA7gHKa03OtqUFWADWPch6mMMk++oHtpCFnUOl3LhRnuqYpUqW5LfqcOf1YFgZ/0MloIJ/BfeKKa2b/Bu1WnBF/Bv24u44KvM/Agli1ecvXWOvjGff8afW/Q6bB4=);strokeColor=#000000;strokeWidth=3;points=[[0.5,0.5,0],[1.08,0.5,0],[0.79,0.5,0],[0.21,0.5,0],[-0.08,0.5,0],[0.21,0,0],[0.79,0,0]];labelBackgroundColor=none;rounded=0;html=1;whiteSpace=wrap;" vertex="1" parent="1">
            <mxGeometry x="2443" y="2204" width="184" height="68" as="geometry" />
          </mxCell>
        </UserObject>
        <UserObject label="&lt;div style=&quot;font-size: 1px&quot;&gt;&lt;font style=&quot;font-size:33.87px;font-family:SimSun;color:#000000;direction:ltr;letter-spacing:0px;line-height:120%;opacity:1&quot;&gt;CPU/加速卡/内存/存储/网络&lt;br/&gt;&lt;/font&gt;&lt;/div&gt;" tags="背景" id="NLWAjB_bUS7uM9UPZkxF-16">
          <mxCell style="verticalAlign=middle;align=center;overflow=width;vsdxID=32;fillColor=none;gradientColor=none;shape=stencil(nZBLDoAgDERP0z3SIyjew0SURgSD+Lu9kMZoXLhwN9O+tukAlrNpJg1SzDH4QW/URgNYgZTkjA4UkwJUgGXng+6DX1zLfmoymdXo17xh5zmRJ6Q42BWCfc2oJfdAr+Yv+AP9Cb7OJ3H/2JG1HNGz/84klThPVCc=);strokeColor=#000000;strokeWidth=3;points=[[1,0.5,0],[0.5,0,0],[0.5,0.5,0],[0.5,0.5,0]];labelBackgroundColor=none;rounded=0;html=1;whiteSpace=wrap;" vertex="1" parent="1">
            <mxGeometry x="2163" y="2628" width="342" height="130" as="geometry" />
          </mxCell>
        </UserObject>
        <UserObject label="" tags="背景" id="NLWAjB_bUS7uM9UPZkxF-17">
          <mxCell style="vsdxID=47;rotation=91;fillColor=none;gradientColor=none;shape=stencil(xZJNDsIgEIVPw1ICTIXua71Hk1JLrKWhrT+3t2RirBJFVu5m4H1D3vAIFGNbDZoINk7OHvXF1FNLYEeEMH2rnZmWikBJoGis0wdn577Gfqi80lcne/YTrsgxTwh2w44z7Pco7Uy/kgpJpXqRb3imOM2yJEbmW6rEZ0QBBfgHEjXz2M5P2wof4DIyP0TyZBcxIvyQdCJq5OualuIZxsZ0HWZ5ff8e3uUIgw/lHQ==);strokeColor=#000000;strokeWidth=3;flipH=1;flipV=1;points=[];labelBackgroundColor=none;rounded=0;html=1;whiteSpace=wrap;" vertex="1" parent="1">
            <mxGeometry x="1552" y="1692" width="60" height="1" as="geometry" />
          </mxCell>
        </UserObject>
        <mxCell id="NLWAjB_bUS7uM9UPZkxF-18" value="&lt;div style=&quot;font-size: 1px&quot;&gt;&lt;/div&gt;" style="text;vsdxID=47;rotation=271.09;fillColor=none;gradientColor=none;strokeColor=none;strokeWidth=3;flipH=1;flipV=1;points=[];labelBackgroundColor=none;rounded=0;html=1;whiteSpace=wrap;verticalAlign=middle;align=center;;html=1;" vertex="1" parent="NLWAjB_bUS7uM9UPZkxF-17">
          <mxGeometry x="-1" width="60" as="geometry" />
        </mxCell>
        <UserObject label="" tags="背景" id="NLWAjB_bUS7uM9UPZkxF-19">
          <mxCell style="vsdxID=50;rotation=136;fillColor=none;gradientColor=none;shape=stencil(xZJNDsIgEIVPw1JCh6bQda33aFJqiQgNxb/bWzIxVhvFrtzNwPuGvOERXo19MygCbAzeHdRFt6EnfEsAtO2V12GqCK8Jrzrn1d67k22xH5qojNXRneOEK3IsEsBu2GUM+x1KjbYzKQBl4kW+yXIhaS5XMYUsKeSfESFoyf+BJM08tvPTtpYPZEVi/hKRq12kiOWHrCeSRr6uaSqeYey0MZjl+f17eKcjDD6v7w==);strokeColor=#000000;strokeWidth=3;flipH=1;flipV=1;points=[];labelBackgroundColor=none;rounded=0;html=1;whiteSpace=wrap;" vertex="1" parent="1">
            <mxGeometry x="1647" y="1473" width="112" height="1" as="geometry" />
          </mxCell>
        </UserObject>
        <mxCell id="NLWAjB_bUS7uM9UPZkxF-20" value="&lt;div style=&quot;font-size: 1px&quot;&gt;&lt;/div&gt;" style="text;vsdxID=50;rotation=316.09;fillColor=none;gradientColor=none;strokeColor=none;strokeWidth=3;flipH=1;flipV=1;points=[];labelBackgroundColor=none;rounded=0;html=1;whiteSpace=wrap;verticalAlign=middle;align=center;;html=1;" vertex="1" parent="NLWAjB_bUS7uM9UPZkxF-19">
          <mxGeometry width="112.15" as="geometry" />
        </mxCell>
        <UserObject label="&lt;div style=&quot;font-size: 1px&quot;&gt;&lt;/div&gt;" tags="背景" id="NLWAjB_bUS7uM9UPZkxF-21">
          <mxCell style="verticalAlign=middle;align=center;overflow=width;vsdxID=82;rotation=269;fillColor=none;gradientColor=none;shape=stencil(vZJNDsIgEIVPw1ICDMG6rvUeTUotEUtD8e/2lkyMVaLYjbsZ5n2TvOERKMeuHjQRbAzeHfTFNKEjsCVCmL7T3oSpIlARKFvn9d67U99gP9RRGaujO8cNV+RYJAS7YccZ9juUWtPPpEJRpV7kq03BaMEXIVIyKj8Ta6Ag/0/kjDwO89Oh0v2cZ/aniFrqIQOkX7EYyLr4eqOpeIawNdZihufz99BOTxh4qO4=);strokeColor=#000000;strokeWidth=3;flipH=1;flipV=1;points=[];labelBackgroundColor=none;rounded=0;html=1;whiteSpace=wrap;" vertex="1" parent="1">
            <mxGeometry x="2376" y="2318" width="60" height="1" as="geometry" />
          </mxCell>
        </UserObject>
        <UserObject label="&lt;div style=&quot;font-size: 1px&quot;&gt;&lt;font style=&quot;font-size:33.87px;font-family:SimSun;color:#000000;direction:ltr;letter-spacing:0px;line-height:120%;opacity:1&quot;&gt;&lt;b&gt;曙光&lt;/b&gt;&lt;/font&gt;&lt;/div&gt;" tags="背景" id="NLWAjB_bUS7uM9UPZkxF-22">
          <mxCell style="verticalAlign=middle;align=center;overflow=width;vsdxID=89;fillColor=none;gradientColor=none;shape=stencil(nZBLDoAgDERP0z3SIyjew0SURgSD+Lu9kMZoXLhwN9O+tukAlrNpJg1SzDH4QW/URgNYgZTkjA4UkwJUgGXng+6DX1zLfmoymdXo17xh5zmRJ6Q42BWCfc2oJfdAr+Yv+AP9Cb7OJ3H/2JG1HNGz/84klThPVCc=);strokeColor=none;strokeWidth=3;points=[];labelBackgroundColor=none;rounded=0;html=1;whiteSpace=wrap;" vertex="1" parent="1">
            <mxGeometry x="2151" y="2348" width="511" height="51" as="geometry" />
          </mxCell>
        </UserObject>
        <UserObject label="&lt;div style=&quot;font-size: 1px&quot;&gt;&lt;font style=&quot;font-size:33.87px;font-family:Calibri;color:#000000;direction:ltr;letter-spacing:0px;line-height:120%;opacity:1&quot;&gt;性能探针服务&lt;br/&gt;（Resource Server）&lt;br/&gt;&lt;/font&gt;&lt;/div&gt;" tags="背景" id="NLWAjB_bUS7uM9UPZkxF-23">
          <mxCell style="verticalAlign=middle;align=center;overflow=width;vsdxID=109;fillColor=none;gradientColor=none;shape=stencil(nZFLDsIwDERP4y0KiYTEupQLcIKIGGIRkiot5XN60g5IpQsWzcqeebGlMZmq9bZh0qrtcrrwXVznyexIa4mes3SlIlOTqU4p8zmnW3ToG1tIrUaFHf6sB1orm48HeTE0s9r+vg0gTLmmftj+AKtgPT/TFPo90CBxgn7NRfAfdCE4W1+KMR8kJyEg3qk/z7NIuIWp3w==);strokeColor=#000000;strokeWidth=3;points=[[1,0.5,0],[0.5,0,0],[0.5,0.5,0],[0.5,0.5,0]];labelBackgroundColor=none;rounded=1;html=1;whiteSpace=wrap;" vertex="1" parent="1">
            <mxGeometry x="2016" y="1722" width="286" height="152" as="geometry" />
          </mxCell>
        </UserObject>
        <UserObject label="" tags="背景" id="NLWAjB_bUS7uM9UPZkxF-24">
          <mxCell style="vsdxID=110;fillColor=none;gradientColor=none;shape=stencil(vVJBDsIgEHwNRwxCNPFc6wd8AbHbloilWahFXy/tYtIaTx7ktDs7zCwZmCp8q3tgUviA7gqjqULL1JFJaboW0IRUMVUyVdQOoUE3dBX1vU5MKWYEKrqzndhSaLyczRMIU5vD+uyJRCo3d5/cI3EFjR5ZjdoTMZPoZJeZckdUzNzcxvfNr0oich2N5+iCDsZ1K1OrsQGeXHhtdbN6jx8B+gX8817/2yoVc0AUnbGW8l3OPwNNEH0GVb4A);strokeColor=#000000;strokeWidth=3;points=[[1,0.5,0],[0.5,0.5,0],[0.5,0,0],[0.5,0.2,0]];labelBackgroundColor=none;rounded=1;html=1;whiteSpace=wrap;" vertex="1" parent="1">
            <mxGeometry x="2016" y="1538" width="286" height="152" as="geometry" />
          </mxCell>
        </UserObject>
        <mxCell id="NLWAjB_bUS7uM9UPZkxF-25" style="vsdxID=111;fillColor=none;gradientColor=none;shape=stencil(nZFBDsIgEEVPwxJDIZp0XesFPAGx05aI0FC06OmlHUyKUReymj885gOfiGrs5QCEs9E7e4ZJNb4nYk84V6YHp3ysiKiJqFrroHP2ahrUg4wkZ0sHGjxTzDRn0p2O6gHYE5syXzuEcMrF3mb3gCzDrTuqEuUByTh0tkvkNqEusUXS4SU/jmKByqBG6qyXXlmTuWrpOqDRhrZadtmDxglgWLWzi2ll4Ltz8YP9l8w/JhZLFpiS0hqjXO+/ZxdbmLuonw==);strokeColor=#000000;strokeWidth=3;points=[[0,0.5,0],[1,0.5,0],[0.5,1,0],[0.5,0,0],[0.5,0.2,0]];labelBackgroundColor=none;rounded=1;html=1;whiteSpace=wrap;" vertex="1" parent="NLWAjB_bUS7uM9UPZkxF-24">
          <mxGeometry width="286" height="152" as="geometry" />
        </mxCell>
        <mxCell id="NLWAjB_bUS7uM9UPZkxF-26" value="&lt;div style=&quot;font-size: 1px&quot;&gt;&lt;font style=&quot;font-size:33.87px;font-family:Calibri;color:#000000;direction:ltr;letter-spacing:0px;line-height:120%;opacity:1&quot;&gt;ES-Server&lt;br/&gt;&lt;/font&gt;&lt;/div&gt;" style="text;vsdxID=110;fillColor=none;gradientColor=none;strokeColor=none;strokeWidth=3;points=[[1,0.5,0],[0.5,0.5,0],[0.5,0,0],[0.5,0.2,0]];labelBackgroundColor=none;rounded=1;html=1;whiteSpace=wrap;verticalAlign=middle;align=center;overflow=width;;html=1;" vertex="1" parent="NLWAjB_bUS7uM9UPZkxF-24">
          <mxGeometry width="286.24" height="152" as="geometry" />
        </mxCell>
        <UserObject label="&lt;div style=&quot;font-size: 1px&quot;&gt;&lt;font style=&quot;font-size:33.87px;font-family:Calibri;color:#000000;direction:ltr;letter-spacing:0px;line-height:120%;opacity:1&quot;&gt;用户/租户/权限/角色/三方授权业务&lt;br/&gt;&lt;/font&gt;&lt;/div&gt;" tags="背景" id="NLWAjB_bUS7uM9UPZkxF-27">
          <mxCell style="verticalAlign=middle;align=center;overflow=width;vsdxID=117;fillColor=none;gradientColor=none;shape=stencil(nZFLDsIwDERP4y0KiYTEupQLcIKIGGIRkiot5XN60g5IpQsWzcqeebGlMZmq9bZh0qrtcrrwXVznyexIa4mes3SlIlOTqU4p8zmnW3ToG1tIrUaFHf6sB1orm48HeTE0s9r+vg0gTLmmftj+AKtgPT/TFPo90CBxgn7NRfAfdCE4W1+KMR8kJyEg3qk/z7NIuIWp3w==);strokeColor=#000000;strokeWidth=3;points=[[1,0.5,0],[0.5,0,0],[0.5,0.5,0],[0.5,0.5,0]];labelBackgroundColor=none;rounded=1;html=1;whiteSpace=wrap;" vertex="1" parent="1">
            <mxGeometry x="1003" y="908" width="540" height="80" as="geometry" />
          </mxCell>
        </UserObject>
        <UserObject label="&lt;div style=&quot;font-size: 1px&quot;&gt;&lt;font style=&quot;font-size:33.87px;font-family:Calibri;color:#000000;direction:ltr;letter-spacing:0px;line-height:120%;opacity:1&quot;&gt;SpringCloud&lt;br/&gt;&lt;/font&gt;&lt;/div&gt;" tags="背景" id="NLWAjB_bUS7uM9UPZkxF-28">
          <mxCell style="verticalAlign=middle;align=center;overflow=width;vsdxID=122;fillColor=none;gradientColor=none;shape=stencil(nZFLDsIwDERP4y0KiYTEupQLcIKIGGIRkiot5XN60g5IpQsWzcqeebGlMZmq9bZh0qrtcrrwXVznyexIa4mes3SlIlOTqU4p8zmnW3ToG1tIrUaFHf6sB1orm48HeTE0s9r+vg0gTLmmftj+AKtgPT/TFPo90CBxgn7NRfAfdCE4W1+KMR8kJyEg3qk/z7NIuIWp3w==);strokeColor=#000000;strokeWidth=3;points=[[1,0.5,0],[0.5,0,0],[0.5,0.5,0],[0.5,0.5,0]];labelBackgroundColor=none;rounded=1;html=1;whiteSpace=wrap;" vertex="1" parent="1">
            <mxGeometry x="1003" y="1008" width="540" height="80" as="geometry" />
          </mxCell>
        </UserObject>
        <UserObject label="&lt;div style=&quot;font-size: 1px&quot;&gt;&lt;font style=&quot;font-size:33.87px;font-family:Calibri;color:#000000;direction:ltr;letter-spacing:0px;line-height:120%;opacity:1&quot;&gt;监控汇聚服务&lt;br/&gt;（Prometheus  Server）&lt;br/&gt;&lt;/font&gt;&lt;/div&gt;" tags="背景" id="NLWAjB_bUS7uM9UPZkxF-29">
          <mxCell style="verticalAlign=middle;align=center;overflow=width;vsdxID=149;fillColor=none;gradientColor=none;shape=stencil(nZFLDsIwDERP4y0KiYTEupQLcIKIGGIRkiot5XN60g5IpQsWzcqeebGlMZmq9bZh0qrtcrrwXVznyexIa4mes3SlIlOTqU4p8zmnW3ToG1tIrUaFHf6sB1orm48HeTE0s9r+vg0gTLmmftj+AKtgPT/TFPo90CBxgn7NRfAfdCE4W1+KMR8kJyEg3qk/z7NIuIWp3w==);strokeColor=#000000;strokeWidth=3;points=[[1,0.5,0],[0.5,0,0],[0.5,0.5,0],[0.5,0.5,0]];labelBackgroundColor=none;rounded=1;html=1;whiteSpace=wrap;" vertex="1" parent="1">
            <mxGeometry x="2329" y="1538" width="345" height="152" as="geometry" />
          </mxCell>
        </UserObject>
        <UserObject label="&lt;div style=&quot;font-size: 1px&quot;&gt;&lt;font style=&quot;font-size:33.87px;font-family:Calibri;color:#000000;direction:ltr;letter-spacing:0px;line-height:120%;opacity:1&quot;&gt;资源图表&lt;br/&gt;（Grafana）&lt;br/&gt;&lt;/font&gt;&lt;/div&gt;" tags="背景" id="NLWAjB_bUS7uM9UPZkxF-30">
          <mxCell style="verticalAlign=middle;align=center;overflow=width;vsdxID=150;fillColor=none;gradientColor=none;shape=stencil(nZFLDsIwDERP4y0KiYTEupQLcIKIGGIRkiot5XN60g5IpQsWzcqeebGlMZmq9bZh0qrtcrrwXVznyexIa4mes3SlIlOTqU4p8zmnW3ToG1tIrUaFHf6sB1orm48HeTE0s9r+vg0gTLmmftj+AKtgPT/TFPo90CBxgn7NRfAfdCE4W1+KMR8kJyEg3qk/z7NIuIWp3w==);strokeColor=#000000;strokeWidth=3;points=[[1,0.5,0],[0.5,0,0],[0.5,0.5,0],[0.5,0.5,0]];labelBackgroundColor=none;rounded=1;html=1;whiteSpace=wrap;" vertex="1" parent="1">
            <mxGeometry x="2523" y="1358" width="160" height="152" as="geometry" />
          </mxCell>
        </UserObject>
        <UserObject label="&lt;div style=&quot;font-size: 1px&quot;&gt;&lt;font style=&quot;font-size:33.87px;font-family:Calibri;color:#000000;direction:ltr;letter-spacing:0px;line-height:120%;opacity:1&quot;&gt;告警组件&lt;br/&gt;（AlertManager&lt;br/&gt;&lt;/font&gt;&lt;/div&gt;" tags="背景" id="NLWAjB_bUS7uM9UPZkxF-31">
          <mxCell style="verticalAlign=middle;align=center;overflow=width;vsdxID=151;fillColor=none;gradientColor=none;shape=stencil(nZFLDsIwDERP4y0KiYTEupQLcIKIGGIRkiot5XN60g5IpQsWzcqeebGlMZmq9bZh0qrtcrrwXVznyexIa4mes3SlIlOTqU4p8zmnW3ToG1tIrUaFHf6sB1orm48HeTE0s9r+vg0gTLmmftj+AKtgPT/TFPo90CBxgn7NRfAfdCE4W1+KMR8kJyEg3qk/z7NIuIWp3w==);strokeColor=#000000;strokeWidth=3;points=[[1,0.5,0],[0.5,0,0],[0.5,0.5,0],[0.5,0.5,0]];labelBackgroundColor=none;rounded=1;html=1;whiteSpace=wrap;" vertex="1" parent="1">
            <mxGeometry x="2323" y="1358" width="191" height="152" as="geometry" />
          </mxCell>
        </UserObject>
        <UserObject label="&lt;div style=&quot;font-size: 1px&quot;&gt;&lt;font style=&quot;font-size:33.87px;font-family:Calibri;color:#000000;direction:ltr;letter-spacing:0px;line-height:120%;opacity:1&quot;&gt;监控消息网关&lt;br/&gt;（PushGateway）&lt;br/&gt;&lt;/font&gt;&lt;/div&gt;" tags="背景" id="NLWAjB_bUS7uM9UPZkxF-32">
          <mxCell style="verticalAlign=middle;align=center;overflow=width;vsdxID=152;fillColor=none;gradientColor=none;shape=stencil(nZFLDsIwDERP4y0KiYTEupQLcIKIGGIRkiot5XN60g5IpQsWzcqeebGlMZmq9bZh0qrtcrrwXVznyexIa4mes3SlIlOTqU4p8zmnW3ToG1tIrUaFHf6sB1orm48HeTE0s9r+vg0gTLmmftj+AKtgPT/TFPo90CBxgn7NRfAfdCE4W1+KMR8kJyEg3qk/z7NIuIWp3w==);strokeColor=#000000;strokeWidth=3;points=[[1,0.5,0],[0.5,0,0],[0.5,0.5,0],[0.5,0.5,0]];labelBackgroundColor=none;rounded=1;html=1;whiteSpace=wrap;" vertex="1" parent="1">
            <mxGeometry x="2333" y="1722" width="342" height="152" as="geometry" />
          </mxCell>
        </UserObject>
        <UserObject label="&lt;div style=&quot;font-size: 1px&quot;&gt;&lt;font style=&quot;font-size:33.87px;font-family:Calibri;color:#000000;direction:ltr;letter-spacing:0px;line-height:120%;opacity:1&quot;&gt;日志服务&lt;br&gt;（log-server）&lt;br&gt;&lt;/font&gt;&lt;/div&gt;" tags="背景" id="NLWAjB_bUS7uM9UPZkxF-33">
          <mxCell style="verticalAlign=middle;align=center;overflow=width;vsdxID=154;fillColor=none;gradientColor=none;shape=stencil(nZFLDsIwDERP4y0KiYTEupQLcIKIGGIRkiot5XN60g5IpQsWzcqeebGlMZmq9bZh0qrtcrrwXVznyexIa4mes3SlIlOTqU4p8zmnW3ToG1tIrUaFHf6sB1orm48HeTE0s9r+vg0gTLmmftj+AKtgPT/TFPo90CBxgn7NRfAfdCE4W1+KMR8kJyEg3qk/z7NIuIWp3w==);strokeColor=#000000;strokeWidth=3;points=[[1,0.5,0],[0.5,0,0],[0.5,0.5,0],[0.5,0.5,0]];labelBackgroundColor=none;rounded=1;html=1;whiteSpace=wrap;" vertex="1" parent="1">
            <mxGeometry x="2703" y="1358" width="220" height="152" as="geometry" />
          </mxCell>
        </UserObject>
        <UserObject label="&lt;div style=&quot;font-size: 1px&quot;&gt;&lt;font style=&quot;font-size:33.87px;font-family:SimSun;color:#000000;direction:ltr;letter-spacing:0px;line-height:120%;opacity:1&quot;&gt;数据存储控制器&lt;br/&gt;（Controller）&lt;br/&gt;&lt;/font&gt;&lt;/div&gt;" tags="背景" id="NLWAjB_bUS7uM9UPZkxF-39">
          <mxCell style="verticalAlign=middle;align=center;overflow=width;vsdxID=218;fillColor=none;gradientColor=none;shape=stencil(nZFLDsIwDERP4y0KiYTEupQLcIKIGGIRkiot5XN60g5IpQsWzcqeebGlMZmq9bZh0qrtcrrwXVznyexIa4mes3SlIlOTqU4p8zmnW3ToG1tIrUaFHf6sB1orm48HeTE0s9r+vg0gTLmmftj+AKtgPT/TFPo90CBxgn7NRfAfdCE4W1+KMR8kJyEg3qk/z7NIuIWp3w==);strokeColor=#000000;strokeWidth=3;points=[[1,0.5,0],[0.5,0,0],[0.5,0.5,0],[0.5,0.5,0]];labelBackgroundColor=none;rounded=1;html=1;whiteSpace=wrap;" vertex="1" parent="1">
            <mxGeometry x="1209" y="1722" width="264" height="152" as="geometry" />
          </mxCell>
        </UserObject>
        <UserObject label="" tags="背景" id="NLWAjB_bUS7uM9UPZkxF-40">
          <mxCell style="vsdxID=219;rotation=232;fillColor=none;gradientColor=none;shape=stencil(xZJNDsIgEIVPw1ICjC12Xes9mpQKsZaG4t/thUyM1UaxK3cz8L4hb3gEylHXgyKCjd7Zg7qYxmsCWyKE6bVyxoeKQEWgbK1Te2dPfYP9UEdlrI72HCdckWOREOyGHWfY71DamX4iFUDX8CJf8SwHuskWMRI4LeAzInOayX8gSTOP7fy0rfkDXCbmz5FisYsUMf+Q5UTSyNc1heIZxtZ0HWZ5ev8e3nCEwYfqDg==);strokeColor=#000000;strokeWidth=3;flipH=1;flipV=1;points=[];labelBackgroundColor=none;rounded=0;html=1;whiteSpace=wrap;" vertex="1" parent="1">
            <mxGeometry x="1638" y="1563" width="129" height="1" as="geometry" />
          </mxCell>
        </UserObject>
        <mxCell id="NLWAjB_bUS7uM9UPZkxF-41" value="&lt;div style=&quot;font-size: 1px&quot;&gt;&lt;/div&gt;" style="text;vsdxID=219;rotation=52.09;fillColor=none;gradientColor=none;strokeColor=none;strokeWidth=3;flipH=1;flipV=1;points=[];labelBackgroundColor=none;rounded=0;html=1;whiteSpace=wrap;verticalAlign=middle;align=center;;html=1;" vertex="1" parent="NLWAjB_bUS7uM9UPZkxF-40">
          <mxGeometry width="129.16" as="geometry" />
        </mxCell>
        <UserObject label="" tags="背景" id="NLWAjB_bUS7uM9UPZkxF-42">
          <mxCell style="vsdxID=226;fillColor=none;gradientColor=none;shape=stencil(nZFLDsIwDERP4y0KiYTEupQLcIKIGGIRkiot5XN60g5IpQsWzcqeebGlMZmq9bZh0qrtcrrwXVznyexIa4mes3SlIlOTqU4p8zmnW3ToG1tIrUaFHf6sB1orm48HeTE0s9r+vg0gTLmmftj+AKtgPT/TFPo90CBxgn7NRfAfdCE4W1+KMR8kJyEg3qk/z7NIuIWp3w==);strokeColor=#000000;strokeWidth=3;points=[[1,0.5,0],[0.5,0,0],[0.5,0.5,0],[0.5,0.5,0]];labelBackgroundColor=none;rounded=1;html=1;whiteSpace=wrap;" vertex="1" parent="1">
            <mxGeometry x="981" y="810" width="576" height="396" as="geometry" />
          </mxCell>
        </UserObject>
        <UserObject label="&lt;div style=&quot;font-size: 1px&quot;&gt;&lt;font style=&quot;font-size:33.87px;font-family:Calibri;color:#000000;direction:ltr;letter-spacing:0px;line-height:120%;opacity:1&quot;&gt;Client-java&lt;br/&gt;&lt;/font&gt;&lt;/div&gt;" tags="背景" id="NLWAjB_bUS7uM9UPZkxF-43">
          <mxCell style="verticalAlign=middle;align=center;overflow=width;vsdxID=227;fillColor=none;gradientColor=none;shape=stencil(nZFLDsIwDERP4y0KiYTEupQLcIKIGGIRkiot5XN60g5IpQsWzcqeebGlMZmq9bZh0qrtcrrwXVznyexIa4mes3SlIlOTqU4p8zmnW3ToG1tIrUaFHf6sB1orm48HeTE0s9r+vg0gTLmmftj+AKtgPT/TFPo90CBxgn7NRfAfdCE4W1+KMR8kJyEg3qk/z7NIuIWp3w==);strokeColor=#000000;strokeWidth=3;points=[[1,0.5,0],[0.5,0,0],[0.5,0.5,0],[0.5,0.5,0]];labelBackgroundColor=none;rounded=1;html=1;whiteSpace=wrap;" vertex="1" parent="1">
            <mxGeometry x="1375" y="1108" width="168" height="80" as="geometry" />
          </mxCell>
        </UserObject>
        <UserObject label="&lt;div style=&quot;font-size: 1px&quot;&gt;&lt;font style=&quot;font-size:33.87px;font-family:Calibri;color:#000000;direction:ltr;letter-spacing:0px;line-height:120%;opacity:1&quot;&gt;Mysql-Client&lt;br/&gt;&lt;/font&gt;&lt;/div&gt;" tags="背景" id="NLWAjB_bUS7uM9UPZkxF-44">
          <mxCell style="verticalAlign=middle;align=center;overflow=width;vsdxID=228;fillColor=none;gradientColor=none;shape=stencil(nZFLDsIwDERP4y0KiYTEupQLcIKIGGIRkiot5XN60g5IpQsWzcqeebGlMZmq9bZh0qrtcrrwXVznyexIa4mes3SlIlOTqU4p8zmnW3ToG1tIrUaFHf6sB1orm48HeTE0s9r+vg0gTLmmftj+AKtgPT/TFPo90CBxgn7NRfAfdCE4W1+KMR8kJyEg3qk/z7NIuIWp3w==);strokeColor=#000000;strokeWidth=3;points=[[1,0.5,0],[0.5,0,0],[0.5,0.5,0],[0.5,0.5,0]];labelBackgroundColor=none;rounded=1;html=1;whiteSpace=wrap;" vertex="1" parent="1">
            <mxGeometry x="1183" y="1108" width="168" height="80" as="geometry" />
          </mxCell>
        </UserObject>
        <UserObject label="&lt;div style=&quot;font-size: 1px&quot;&gt;&lt;font style=&quot;font-size:33.87px;font-family:Calibri;color:#000000;direction:ltr;letter-spacing:0px;line-height:120%;opacity:1&quot;&gt;Nacos-client&lt;br/&gt;&lt;/font&gt;&lt;/div&gt;" tags="背景" id="NLWAjB_bUS7uM9UPZkxF-45">
          <mxCell style="verticalAlign=middle;align=center;overflow=width;vsdxID=229;fillColor=none;gradientColor=none;shape=stencil(nZFLDsIwDERP4y0KiYTEupQLcIKIGGIRkiot5XN60g5IpQsWzcqeebGlMZmq9bZh0qrtcrrwXVznyexIa4mes3SlIlOTqU4p8zmnW3ToG1tIrUaFHf6sB1orm48HeTE0s9r+vg0gTLmmftj+AKtgPT/TFPo90CBxgn7NRfAfdCE4W1+KMR8kJyEg3qk/z7NIuIWp3w==);strokeColor=#000000;strokeWidth=3;points=[[1,0.5,0],[0.5,0,0],[0.5,0.5,0],[0.5,0.5,0]];labelBackgroundColor=none;rounded=1;html=1;whiteSpace=wrap;" vertex="1" parent="1">
            <mxGeometry x="1001" y="1108" width="168" height="80" as="geometry" />
          </mxCell>
        </UserObject>
        <UserObject label="&lt;div style=&quot;font-size: 1px&quot;&gt;&lt;font style=&quot;font-size:33.87px;font-family:SimSun;color:#000000;direction:ltr;letter-spacing:0px;line-height:120%;opacity:1&quot;&gt;&lt;b&gt;用户中心微服务&lt;br/&gt;&lt;/b&gt;&lt;/font&gt;&lt;/div&gt;" tags="背景" id="NLWAjB_bUS7uM9UPZkxF-46">
          <mxCell style="verticalAlign=middle;align=center;overflow=width;vsdxID=230;fillColor=none;gradientColor=none;shape=stencil(nZBLDoAgDERP0z3SIyjew0SURgSD+Lu9kMZoXLhwN9O+tukAlrNpJg1SzDH4QW/URgNYgZTkjA4UkwJUgGXng+6DX1zLfmoymdXo17xh5zmRJ6Q42BWCfc2oJfdAr+Yv+AP9Cb7OJ3H/2JG1HNGz/84klThPVCc=);strokeColor=none;points=[];labelBackgroundColor=none;rounded=0;html=1;whiteSpace=wrap;" vertex="1" parent="1">
            <mxGeometry x="986" y="810" width="569" height="88" as="geometry" />
          </mxCell>
        </UserObject>
        <UserObject label="&lt;div style=&quot;font-size: 1px&quot;&gt;&lt;font style=&quot;font-size:33.87px;font-family:Calibri;color:#000000;direction:ltr;letter-spacing:0px;line-height:120%;opacity:1&quot;&gt;作业业务&lt;br/&gt;&lt;/font&gt;&lt;/div&gt;" tags="背景" id="NLWAjB_bUS7uM9UPZkxF-47">
          <mxCell style="verticalAlign=middle;align=center;overflow=width;vsdxID=246;fillColor=none;gradientColor=none;shape=stencil(nZFLDsIwDERP4y0KiYTEupQLcIKIGGIRkiot5XN60g5IpQsWzcqeebGlMZmq9bZh0qrtcrrwXVznyexIa4mes3SlIlOTqU4p8zmnW3ToG1tIrUaFHf6sB1orm48HeTE0s9r+vg0gTLmmftj+AKtgPT/TFPo90CBxgn7NRfAfdCE4W1+KMR8kJyEg3qk/z7NIuIWp3w==);strokeColor=#000000;strokeWidth=3;points=[[1,0.5,0],[0.5,0,0],[0.5,0.5,0],[0.5,0.5,0]];labelBackgroundColor=none;rounded=1;html=1;whiteSpace=wrap;" vertex="1" parent="1">
            <mxGeometry x="1618" y="908" width="540" height="80" as="geometry" />
          </mxCell>
        </UserObject>
        <UserObject label="&lt;div style=&quot;font-size: 1px&quot;&gt;&lt;font style=&quot;font-size:33.87px;font-family:Calibri;color:#000000;direction:ltr;letter-spacing:0px;line-height:120%;opacity:1&quot;&gt;SpringCloud&lt;br/&gt;&lt;/font&gt;&lt;/div&gt;" tags="背景" id="NLWAjB_bUS7uM9UPZkxF-48">
          <mxCell style="verticalAlign=middle;align=center;overflow=width;vsdxID=247;fillColor=none;gradientColor=none;shape=stencil(nZFLDsIwDERP4y0KiYTEupQLcIKIGGIRkiot5XN60g5IpQsWzcqeebGlMZmq9bZh0qrtcrrwXVznyexIa4mes3SlIlOTqU4p8zmnW3ToG1tIrUaFHf6sB1orm48HeTE0s9r+vg0gTLmmftj+AKtgPT/TFPo90CBxgn7NRfAfdCE4W1+KMR8kJyEg3qk/z7NIuIWp3w==);strokeColor=#000000;strokeWidth=3;points=[[1,0.5,0],[0.5,0,0],[0.5,0.5,0],[0.5,0.5,0]];labelBackgroundColor=none;rounded=1;html=1;whiteSpace=wrap;" vertex="1" parent="1">
            <mxGeometry x="1618" y="1008" width="540" height="80" as="geometry" />
          </mxCell>
        </UserObject>
        <UserObject label="" tags="背景" id="NLWAjB_bUS7uM9UPZkxF-49">
          <mxCell style="vsdxID=248;fillColor=none;gradientColor=none;shape=stencil(nZFLDsIwDERP4y0KiYTEupQLcIKIGGIRkiot5XN60g5IpQsWzcqeebGlMZmq9bZh0qrtcrrwXVznyexIa4mes3SlIlOTqU4p8zmnW3ToG1tIrUaFHf6sB1orm48HeTE0s9r+vg0gTLmmftj+AKtgPT/TFPo90CBxgn7NRfAfdCE4W1+KMR8kJyEg3qk/z7NIuIWp3w==);strokeColor=#000000;strokeWidth=3;points=[[1,0.5,0],[0.5,0,0],[0.5,0.5,0],[0.5,0.5,0]];labelBackgroundColor=none;rounded=1;html=1;whiteSpace=wrap;" vertex="1" parent="1">
            <mxGeometry x="1603" y="810" width="576" height="396" as="geometry" />
          </mxCell>
        </UserObject>
        <UserObject label="&lt;div style=&quot;font-size: 1px&quot;&gt;&lt;font style=&quot;font-size:33.87px;font-family:Calibri;color:#000000;direction:ltr;letter-spacing:0px;line-height:120%;opacity:1&quot;&gt;Client-java&lt;br/&gt;&lt;/font&gt;&lt;/div&gt;" tags="背景" id="NLWAjB_bUS7uM9UPZkxF-50">
          <mxCell style="verticalAlign=middle;align=center;overflow=width;vsdxID=249;fillColor=none;gradientColor=none;shape=stencil(nZFLDsIwDERP4y0KiYTEupQLcIKIGGIRkiot5XN60g5IpQsWzcqeebGlMZmq9bZh0qrtcrrwXVznyexIa4mes3SlIlOTqU4p8zmnW3ToG1tIrUaFHf6sB1orm48HeTE0s9r+vg0gTLmmftj+AKtgPT/TFPo90CBxgn7NRfAfdCE4W1+KMR8kJyEg3qk/z7NIuIWp3w==);strokeColor=#000000;strokeWidth=3;points=[[1,0.5,0],[0.5,0,0],[0.5,0.5,0],[0.5,0.5,0]];labelBackgroundColor=none;rounded=1;html=1;whiteSpace=wrap;" vertex="1" parent="1">
            <mxGeometry x="1619" y="1108" width="168" height="80" as="geometry" />
          </mxCell>
        </UserObject>
        <UserObject label="&lt;div style=&quot;font-size: 1px&quot;&gt;&lt;font style=&quot;font-size:33.87px;font-family:Calibri;color:#000000;direction:ltr;letter-spacing:0px;line-height:120%;opacity:1&quot;&gt;Mysql-Client&lt;br/&gt;&lt;/font&gt;&lt;/div&gt;" tags="背景" id="NLWAjB_bUS7uM9UPZkxF-51">
          <mxCell style="verticalAlign=middle;align=center;overflow=width;vsdxID=250;fillColor=none;gradientColor=none;shape=stencil(nZFLDsIwDERP4y0KiYTEupQLcIKIGGIRkiot5XN60g5IpQsWzcqeebGlMZmq9bZh0qrtcrrwXVznyexIa4mes3SlIlOTqU4p8zmnW3ToG1tIrUaFHf6sB1orm48HeTE0s9r+vg0gTLmmftj+AKtgPT/TFPo90CBxgn7NRfAfdCE4W1+KMR8kJyEg3qk/z7NIuIWp3w==);strokeColor=#000000;strokeWidth=3;points=[[1,0.5,0],[0.5,0,0],[0.5,0.5,0],[0.5,0.5,0]];labelBackgroundColor=none;rounded=1;html=1;whiteSpace=wrap;" vertex="1" parent="1">
            <mxGeometry x="1801" y="1108" width="168" height="80" as="geometry" />
          </mxCell>
        </UserObject>
        <UserObject label="&lt;div style=&quot;font-size: 1px&quot;&gt;&lt;font style=&quot;font-size:33.87px;font-family:Calibri;color:#000000;direction:ltr;letter-spacing:0px;line-height:120%;opacity:1&quot;&gt;Nacos-client&lt;br/&gt;&lt;/font&gt;&lt;/div&gt;" tags="背景" id="NLWAjB_bUS7uM9UPZkxF-52">
          <mxCell style="verticalAlign=middle;align=center;overflow=width;vsdxID=251;fillColor=none;gradientColor=none;shape=stencil(nZFLDsIwDERP4y0KiYTEupQLcIKIGGIRkiot5XN60g5IpQsWzcqeebGlMZmq9bZh0qrtcrrwXVznyexIa4mes3SlIlOTqU4p8zmnW3ToG1tIrUaFHf6sB1orm48HeTE0s9r+vg0gTLmmftj+AKtgPT/TFPo90CBxgn7NRfAfdCE4W1+KMR8kJyEg3qk/z7NIuIWp3w==);strokeColor=#000000;strokeWidth=3;points=[[1,0.5,0],[0.5,0,0],[0.5,0.5,0],[0.5,0.5,0]];labelBackgroundColor=none;rounded=1;html=1;whiteSpace=wrap;" vertex="1" parent="1">
            <mxGeometry x="1983" y="1108" width="168" height="80" as="geometry" />
          </mxCell>
        </UserObject>
        <UserObject label="&lt;div style=&quot;font-size: 1px&quot;&gt;&lt;font style=&quot;font-size:33.87px;font-family:SimSun;color:#000000;direction:ltr;letter-spacing:0px;line-height:120%;opacity:1&quot;&gt;&lt;b&gt;作业管理微服务&lt;br/&gt;&lt;/b&gt;&lt;/font&gt;&lt;/div&gt;" tags="背景" id="NLWAjB_bUS7uM9UPZkxF-53">
          <mxCell style="verticalAlign=middle;align=center;overflow=width;vsdxID=252;fillColor=none;gradientColor=none;shape=stencil(nZBLDoAgDERP0z3SIyjew0SURgSD+Lu9kMZoXLhwN9O+tukAlrNpJg1SzDH4QW/URgNYgZTkjA4UkwJUgGXng+6DX1zLfmoymdXo17xh5zmRJ6Q42BWCfc2oJfdAr+Yv+AP9Cb7OJ3H/2JG1HNGz/84klThPVCc=);strokeColor=none;points=[];labelBackgroundColor=none;rounded=0;html=1;whiteSpace=wrap;" vertex="1" parent="1">
            <mxGeometry x="1688" y="811" width="406" height="99" as="geometry" />
          </mxCell>
        </UserObject>
        <UserObject label="&lt;div style=&quot;font-size: 1px&quot;&gt;&lt;font style=&quot;font-size:33.87px;font-family:Calibri;color:#000000;direction:ltr;letter-spacing:0px;line-height:120%;opacity:1&quot;&gt;后台管理业务&lt;br/&gt;&lt;/font&gt;&lt;/div&gt;" tags="背景" id="NLWAjB_bUS7uM9UPZkxF-54">
          <mxCell style="verticalAlign=middle;align=center;overflow=width;vsdxID=253;fillColor=none;gradientColor=none;shape=stencil(nZFLDsIwDERP4y0KiYTEupQLcIKIGGIRkiot5XN60g5IpQsWzcqeebGlMZmq9bZh0qrtcrrwXVznyexIa4mes3SlIlOTqU4p8zmnW3ToG1tIrUaFHf6sB1orm48HeTE0s9r+vg0gTLmmftj+AKtgPT/TFPo90CBxgn7NRfAfdCE4W1+KMR8kJyEg3qk/z7NIuIWp3w==);strokeColor=#000000;strokeWidth=3;points=[[1,0.5,0],[0.5,0,0],[0.5,0.5,0],[0.5,0.5,0]];labelBackgroundColor=none;rounded=1;html=1;whiteSpace=wrap;" vertex="1" parent="1">
            <mxGeometry x="2262" y="908" width="540" height="80" as="geometry" />
          </mxCell>
        </UserObject>
        <UserObject label="&lt;div style=&quot;font-size: 1px&quot;&gt;&lt;font style=&quot;font-size:33.87px;font-family:Calibri;color:#000000;direction:ltr;letter-spacing:0px;line-height:120%;opacity:1&quot;&gt;SpringCloud&lt;br/&gt;&lt;/font&gt;&lt;/div&gt;" tags="背景" id="NLWAjB_bUS7uM9UPZkxF-55">
          <mxCell style="verticalAlign=middle;align=center;overflow=width;vsdxID=254;fillColor=none;gradientColor=none;shape=stencil(nZFLDsIwDERP4y0KiYTEupQLcIKIGGIRkiot5XN60g5IpQsWzcqeebGlMZmq9bZh0qrtcrrwXVznyexIa4mes3SlIlOTqU4p8zmnW3ToG1tIrUaFHf6sB1orm48HeTE0s9r+vg0gTLmmftj+AKtgPT/TFPo90CBxgn7NRfAfdCE4W1+KMR8kJyEg3qk/z7NIuIWp3w==);strokeColor=#000000;strokeWidth=3;points=[[1,0.5,0],[0.5,0,0],[0.5,0.5,0],[0.5,0.5,0]];labelBackgroundColor=none;rounded=1;html=1;whiteSpace=wrap;" vertex="1" parent="1">
            <mxGeometry x="2262" y="1008" width="540" height="80" as="geometry" />
          </mxCell>
        </UserObject>
        <UserObject label="" tags="背景" id="NLWAjB_bUS7uM9UPZkxF-56">
          <mxCell style="vsdxID=255;fillColor=none;gradientColor=none;shape=stencil(nZFLDsIwDERP4y0KiYTEupQLcIKIGGIRkiot5XN60g5IpQsWzcqeebGlMZmq9bZh0qrtcrrwXVznyexIa4mes3SlIlOTqU4p8zmnW3ToG1tIrUaFHf6sB1orm48HeTE0s9r+vg0gTLmmftj+AKtgPT/TFPo90CBxgn7NRfAfdCE4W1+KMR8kJyEg3qk/z7NIuIWp3w==);strokeColor=#000000;strokeWidth=3;points=[[1,0.5,0],[0.5,0,0],[0.5,0.5,0],[0.5,0.5,0]];labelBackgroundColor=none;rounded=1;html=1;whiteSpace=wrap;" vertex="1" parent="1">
            <mxGeometry x="2247" y="810" width="576" height="396" as="geometry" />
          </mxCell>
        </UserObject>
        <UserObject label="&lt;div style=&quot;font-size: 1px&quot;&gt;&lt;font style=&quot;font-size:33.87px;font-family:Calibri;color:#000000;direction:ltr;letter-spacing:0px;line-height:120%;opacity:1&quot;&gt;Client-java&lt;br/&gt;&lt;/font&gt;&lt;/div&gt;" tags="背景" id="NLWAjB_bUS7uM9UPZkxF-57">
          <mxCell style="verticalAlign=middle;align=center;overflow=width;vsdxID=256;fillColor=none;gradientColor=none;shape=stencil(nZFLDsIwDERP4y0KiYTEupQLcIKIGGIRkiot5XN60g5IpQsWzcqeebGlMZmq9bZh0qrtcrrwXVznyexIa4mes3SlIlOTqU4p8zmnW3ToG1tIrUaFHf6sB1orm48HeTE0s9r+vg0gTLmmftj+AKtgPT/TFPo90CBxgn7NRfAfdCE4W1+KMR8kJyEg3qk/z7NIuIWp3w==);strokeColor=#000000;strokeWidth=3;points=[[1,0.5,0],[0.5,0,0],[0.5,0.5,0],[0.5,0.5,0]];labelBackgroundColor=none;rounded=1;html=1;whiteSpace=wrap;" vertex="1" parent="1">
            <mxGeometry x="2635" y="1108" width="168" height="80" as="geometry" />
          </mxCell>
        </UserObject>
        <UserObject label="&lt;div style=&quot;font-size: 1px&quot;&gt;&lt;font style=&quot;font-size:33.87px;font-family:Calibri;color:#000000;direction:ltr;letter-spacing:0px;line-height:120%;opacity:1&quot;&gt;Mysql-Client&lt;br/&gt;&lt;/font&gt;&lt;/div&gt;" tags="背景" id="NLWAjB_bUS7uM9UPZkxF-58">
          <mxCell style="verticalAlign=middle;align=center;overflow=width;vsdxID=257;fillColor=none;gradientColor=none;shape=stencil(nZFLDsIwDERP4y0KiYTEupQLcIKIGGIRkiot5XN60g5IpQsWzcqeebGlMZmq9bZh0qrtcrrwXVznyexIa4mes3SlIlOTqU4p8zmnW3ToG1tIrUaFHf6sB1orm48HeTE0s9r+vg0gTLmmftj+AKtgPT/TFPo90CBxgn7NRfAfdCE4W1+KMR8kJyEg3qk/z7NIuIWp3w==);strokeColor=#000000;strokeWidth=3;points=[[1,0.5,0],[0.5,0,0],[0.5,0.5,0],[0.5,0.5,0]];labelBackgroundColor=none;rounded=1;html=1;whiteSpace=wrap;" vertex="1" parent="1">
            <mxGeometry x="2445" y="1108" width="168" height="80" as="geometry" />
          </mxCell>
        </UserObject>
        <UserObject label="&lt;div style=&quot;font-size: 1px&quot;&gt;&lt;font style=&quot;font-size:33.87px;font-family:Calibri;color:#000000;direction:ltr;letter-spacing:0px;line-height:120%;opacity:1&quot;&gt;Nacos-client&lt;br/&gt;&lt;/font&gt;&lt;/div&gt;" tags="背景" id="NLWAjB_bUS7uM9UPZkxF-59">
          <mxCell style="verticalAlign=middle;align=center;overflow=width;vsdxID=258;fillColor=none;gradientColor=none;shape=stencil(nZFLDsIwDERP4y0KiYTEupQLcIKIGGIRkiot5XN60g5IpQsWzcqeebGlMZmq9bZh0qrtcrrwXVznyexIa4mes3SlIlOTqU4p8zmnW3ToG1tIrUaFHf6sB1orm48HeTE0s9r+vg0gTLmmftj+AKtgPT/TFPo90CBxgn7NRfAfdCE4W1+KMR8kJyEg3qk/z7NIuIWp3w==);strokeColor=#000000;strokeWidth=3;points=[[1,0.5,0],[0.5,0,0],[0.5,0.5,0],[0.5,0.5,0]];labelBackgroundColor=none;rounded=1;html=1;whiteSpace=wrap;" vertex="1" parent="1">
            <mxGeometry x="2263" y="1108" width="168" height="80" as="geometry" />
          </mxCell>
        </UserObject>
        <UserObject label="&lt;div style=&quot;font-size: 1px&quot;&gt;&lt;font style=&quot;font-size:33.87px;font-family:SimSun;color:#000000;direction:ltr;letter-spacing:0px;line-height:120%;opacity:1&quot;&gt;&lt;b&gt;后台管理微服务&lt;br/&gt;&lt;/b&gt;&lt;/font&gt;&lt;/div&gt;" tags="背景" id="NLWAjB_bUS7uM9UPZkxF-60">
          <mxCell style="verticalAlign=middle;align=center;overflow=width;vsdxID=259;fillColor=none;gradientColor=none;shape=stencil(nZBLDoAgDERP0z3SIyjew0SURgSD+Lu9kMZoXLhwN9O+tukAlrNpJg1SzDH4QW/URgNYgZTkjA4UkwJUgGXng+6DX1zLfmoymdXo17xh5zmRJ6Q42BWCfc2oJfdAr+Yv+AP9Cb7OJ3H/2JG1HNGz/84klThPVCc=);strokeColor=none;points=[];labelBackgroundColor=none;rounded=0;html=1;whiteSpace=wrap;" vertex="1" parent="1">
            <mxGeometry x="2247" y="810" width="576" height="99" as="geometry" />
          </mxCell>
        </UserObject>
        <UserObject label="&lt;div style=&quot;font-size: 1px&quot;&gt;&lt;font style=&quot;font-size:33.87px;font-family:SimSun;color:#000000;direction:ltr;letter-spacing:0px;line-height:120%;opacity:1&quot;&gt;…&lt;br/&gt;&lt;/font&gt;&lt;/div&gt;" tags="背景" id="NLWAjB_bUS7uM9UPZkxF-61">
          <mxCell style="verticalAlign=middle;align=center;overflow=width;vsdxID=260;fillColor=none;gradientColor=none;shape=stencil(nZBLDoAgDERP0z3SIyjew0SURgSD+Lu9kMZoXLhwN9O+tukAlrNpJg1SzDH4QW/URgNYgZTkjA4UkwJUgGXng+6DX1zLfmoymdXo17xh5zmRJ6Q42BWCfc2oJfdAr+Yv+AP9Cb7OJ3H/2JG1HNGz/84klThPVCc=);strokeColor=none;points=[];labelBackgroundColor=none;rounded=0;html=1;whiteSpace=wrap;" vertex="1" parent="1">
            <mxGeometry x="2143" y="936" width="140" height="80" as="geometry" />
          </mxCell>
        </UserObject>
        <UserObject label="" tags="背景" id="NLWAjB_bUS7uM9UPZkxF-62">
          <mxCell style="vsdxID=261;rotation=124;fillColor=none;gradientColor=none;shape=stencil(xZJNDsIgEIVPw1ICTKnd13qPJqWWiKWh1J/bWzILq0QJK3cz8L4hb3gE6nloJ0UEm72zZ3XTnR8IHIgQehyU036tCDQE6t46dXJ2GTvspzYoQ3Wx1zDhjhwLhGAP7DjD/ohSo8eNlJdUijf5jgtgFHgWI0tJufyOVECL6h9I2gzL2Fb8AC8S82Nkn+0iRcQfkk8kjfxc01q8wthrYzDL2/vP8K5HGHxong==);strokeColor=#000000;strokeWidth=3;flipH=1;flipV=1;points=[];labelBackgroundColor=none;rounded=0;html=1;whiteSpace=wrap;" vertex="1" parent="1">
            <mxGeometry x="1537" y="1276" width="212" height="1" as="geometry" />
          </mxCell>
        </UserObject>
        <mxCell id="NLWAjB_bUS7uM9UPZkxF-63" value="&lt;div style=&quot;font-size: 1px&quot;&gt;&lt;/div&gt;" style="text;vsdxID=261;rotation=304.09;fillColor=none;gradientColor=none;strokeColor=none;strokeWidth=3;flipH=1;flipV=1;points=[];labelBackgroundColor=none;rounded=0;html=1;whiteSpace=wrap;verticalAlign=middle;align=center;;html=1;" vertex="1" parent="NLWAjB_bUS7uM9UPZkxF-62">
          <mxGeometry width="212.1" as="geometry" />
        </mxCell>
        <UserObject label="&lt;div style=&quot;font-size: 1px&quot;&gt;&lt;font style=&quot;font-size:33.87px;font-family:SimSun;color:#000000;direction:ltr;letter-spacing:0px;line-height:120%;opacity:1&quot;&gt;&lt;b&gt;作业抽象（AIJOB）&lt;br&gt;&lt;/b&gt;&lt;/font&gt;&lt;/div&gt;" tags="背景" id="NLWAjB_bUS7uM9UPZkxF-64">
          <mxCell style="verticalAlign=middle;align=center;overflow=width;vsdxID=262;fillColor=none;gradientColor=none;shape=stencil(nZBLDoAgDERP0z3SIyjew0SURgSD+Lu9kMZoXLhwN9O+tukAlrNpJg1SzDH4QW/URgNYgZTkjA4UkwJUgGXng+6DX1zLfmoymdXo17xh5zmRJ6Q42BWCfc2oJfdAr+Yv+AP9Cb7OJ3H/2JG1HNGz/84klThPVCc=);strokeColor=none;points=[];labelBackgroundColor=none;rounded=0;html=1;whiteSpace=wrap;" vertex="1" parent="1">
            <mxGeometry x="1330" y="1215" width="313" height="83" as="geometry" />
          </mxCell>
        </UserObject>
        <UserObject label="" tags="流程图" id="NLWAjB_bUS7uM9UPZkxF-65">
          <mxCell style="vsdxID=263;fillColor=none;gradientColor=none;strokeColor=none;points=[[0.5,0.5,0],[1,0.5,0],[0.5,0,0]];labelBackgroundColor=none;rounded=0;html=1;whiteSpace=wrap;" vertex="1" parent="1">
            <mxGeometry x="1823" y="418" width="140" height="99" as="geometry" />
          </mxCell>
        </UserObject>
        <mxCell id="NLWAjB_bUS7uM9UPZkxF-66" style="vsdxID=264;fillColor=#ffffff;gradientColor=none;shape=stencil(tVbbchoxDP0aHvHoYt0eO2n6H0xCEqYUMgtpyN9XZBcCpoGkmfJkLB1bR9KRd8RXq4fJ43REsFp3y5/T59nt+mHE30dEs8XDtJutczXi6xFf3S276X23fFrc9v8fJ1vP7erX8vf2hE2PUy8oWxTBS7+DXLi+7vzoAZPuJq3dAJDivXs3+GtR63cGj8DC7x0Jm/FkM1uNu+V6sp4tF70dett80t1Px3nd+G4+uR+gvWn1PJ0+HmzDVwI8x/m/BHic8qCCenQ9Q6E4BMxni8MaWQE7D7h56vorcIBIIWVgcg7DgdoLHqAxTeBVECJ21GkAc1FgTKuC6S5TtAdHqGiNCk4RMWR7wwOYCpmagTtwCMCO6mDnZO9cqzkqDnl4JQHf/sZj20vMBIBUIwCkocIFIByqGLlGwwOKBIpJ1OSav9pQqQU0FJNGpdrQgLSRRAKpZZC5dQwN4TT7BQYSJQkoQeYsAJvwtWQek565VG7KkEhiq5DBhe2Ru9ituARBiAiJHge/RdYm6CiMTajHXXYI6neMi8iZttSCX/JHgPe9UyVuX3G/EM3utH90b/J5Wvc3AO4rRkQeLtk8A3Zf68jjXFSyoJqt0NRa8i7AgEALa2odngpBT0lhtvEuBbyXhzm5mGaC6qVWDSvK7NlsRrWdGVQsp5rVWrOQbfRaDDnbkapajoRo4sfi1dA1pZgiBKCGghRVSLMkQ6SGAqYKQmt1T4XgTsRnWNScXo7sloOP2nkBSTFrw1mCHFLRTIzgUrfFyGmDGq3kXsdm5Ej0HEc5NrmhcTDX+QDSxJvrt8f4bjaf92/5vpHee6ktiu5y8wFBnLqbF9dDQPMl8FU5izSSOHn2PqfQU8CFGz4l6A+Mu6NKNVXKRfuJlVv95xlf/wE=);strokeColor=#939393;points=[[0,0.5,0],[0.5,1,0],[1,0.5,0],[0.5,0,0]];labelBackgroundColor=none;rounded=0;html=1;whiteSpace=wrap;" vertex="1" parent="NLWAjB_bUS7uM9UPZkxF-65">
          <mxGeometry x="51" y="26" width="88" height="72" as="geometry" />
        </mxCell>
        <mxCell id="NLWAjB_bUS7uM9UPZkxF-67" style="vsdxID=265;fillColor=#000000;gradientColor=none;shape=stencil(nZXRUhsxDEW/Jq8aybJk6bFD6X8wJZRMKWECtPD3vctumtihUDqT2dmsJVvn6tpe6dn99cXdelX4/mG3/b7+tbl8uF7p51Upm9vr9W7zgLeVnq/07Gq7W3/bbR9vL+f/dxdT5PT2Y/tzmuFpzkuhalNW4ef5S1DTlw9f5vivj7s5QQ4ZNSzdMnQJ5edl0MnDRdJTU5hZ5uGnsuQyRQRz5aZNfMldBitFsaYlMbV5Zl1ydakrKWuVVsKkZS65y6CSVtUiWqZEzHAg4E+vQGCyko2FazHGT3qMQpgovBVu1vwEI4Kqp3trUiNajwF5IkTCa2RVaNAGjkY2ragBpQYMpmR3L2psAUgt73E4WbCiRGs1S0/BoLDCzgaBJJOjDhxGJqFpIly09hxM/KIPSxXTTCvoy4BSSUeCoeCbze2R28RI93KdxJ/SiVLDA2JZgnCg61mkUBH3ippRtY8sntAcCAoVoOvQExFiabBsWitaeiShsIAhOWBa9JP1naYIk2T1SPGpKXzqLseEjADsETyy9SiJrqCdUD6nWnsUxQ4T5TR0vRic7j1KEleQAjThX+lRsMVqTv3EBq5/fP2GvQh1aIPRsfVqjCAO1TybYrXqA0SQ4hywwDay0AGiwZk4PYwbXD4JNBoLyX3l/an0irWOUpbijJZpF3f18acH34cTxpPy5GTd77clvhXiNxZo5O0j8dwXg8bHvwbjaP576H7wv4JRhsibIr4nCl4Ol9XV5uZmvuuOx8fLDZ/mi1HPfwM=);strokeColor=#939393;points=[[0,0.5,0],[0.5,1,0],[1,0.5,0],[0.5,0,0]];labelBackgroundColor=none;rounded=0;html=1;whiteSpace=wrap;" vertex="1" parent="NLWAjB_bUS7uM9UPZkxF-65">
          <mxGeometry width="89" height="68" as="geometry" />
        </mxCell>
        <mxCell id="NLWAjB_bUS7uM9UPZkxF-68" style="vsdxID=266;fillColor=#000000;gradientColor=none;shape=stencil(pZLBEoIgEIafhiuzLBV4NnsPJzGZTBzUsrdPBizh4KXb8vMt882yhOdDU/aKIAyjNXf10tXYEH4miLprlNXjUhFeEJ7XxqqbNVNX+XNfOtJVD/N0L8y+jwG4HoR3fL54uNXdDszpSW7p62T92yzl2doA6JMZfZJlVLIAhYhRIQLEAySolAEK0Y4lUoaRJuw6UnGMJSE2ZF/nVRAoP8SCEMulc4n9/hh4Ai/F719r3bZ+Lbb36R4skd8hXnwA);strokeColor=#FFFFFF;points=[[0,0.5,0],[0.5,1,0],[1,0.5,0],[0.5,0,0]];labelBackgroundColor=none;rounded=0;html=1;whiteSpace=wrap;" vertex="1" parent="NLWAjB_bUS7uM9UPZkxF-65">
          <mxGeometry x="12" y="4" width="64" height="35" as="geometry" />
        </mxCell>
        <mxCell id="NLWAjB_bUS7uM9UPZkxF-69" style="vsdxID=267;fillColor=#FFFFFF;gradientColor=none;shape=stencil(UzV2Ls5ILEhVNTIoLinKz04tz0wpyVA1dlE1MsrMy0gtyiwBslSNXVWNndPyi1LTi/JL81Ig/IJEkEoQKze/DGRCBUSfqZ6BCUiTkUElRMAAzHODqM3JzENSa4Ci0NAAj1KYJFGKLU30LM2IdQR+BwMZCJ+mZebkIMughwlQCBKexq4A);strokeColor=#FFFFFF;points=[[0,0.5,0],[0.5,1,0],[1,0.5,0],[0.5,0,0]];labelBackgroundColor=none;rounded=0;html=1;whiteSpace=wrap;" vertex="1" parent="NLWAjB_bUS7uM9UPZkxF-65">
          <mxGeometry x="7" y="53" width="73" height="6" as="geometry" />
        </mxCell>
        <mxCell id="NLWAjB_bUS7uM9UPZkxF-70" value="&lt;div style=&quot;font-size: 1px&quot;&gt;&lt;/div&gt;" style="text;vsdxID=263;fillColor=none;gradientColor=none;strokeColor=none;points=[[0.5,0.5,0],[1,0.5,0],[0.5,0,0]];labelBackgroundColor=none;rounded=0;html=1;whiteSpace=wrap;verticalAlign=middle;align=center;overflow=width;;html=1;" vertex="1" parent="NLWAjB_bUS7uM9UPZkxF-65">
          <mxGeometry x="64.36" y="99" width="11.29" height="51.93" as="geometry" />
        </mxCell>
        <UserObject label="&lt;div style=&quot;font-size: 1px&quot;&gt;&lt;font style=&quot;font-size:33.87px;font-family:SimSun;color:#000000;direction:ltr;letter-spacing:0px;line-height:120%;opacity:1&quot;&gt;API网关&lt;br/&gt;（消息转发/限流/熔断）&lt;br/&gt;&lt;/font&gt;&lt;/div&gt;" tags="背景" id="NLWAjB_bUS7uM9UPZkxF-71">
          <mxCell style="verticalAlign=middle;align=center;overflow=width;vsdxID=269;fillColor=none;gradientColor=none;shape=stencil(nZFLDsIwDERP4y0KyQKxLuUCnCAihliEpEpL+ZyetANS6YJFs7JnXmxpTKZqvW2YtGq7nC58F9d5MjvSWqLnLF2pyNRkqlPKfM7pFh36xhZSq1Fhhz/rgdbK5uNBXgxts9r+PjAYck39sPwBVMF6foYp9HugQeIE/ZqL4D/oQnC2vhRjPAhOQkC6U38eZ5FwClO/AQ==);strokeColor=#000000;strokeWidth=3;points=[[1,0.5,0],[0.5,0,0],[0.5,0.5,0],[0.5,0.5,0]];labelBackgroundColor=none;rounded=1;html=1;whiteSpace=wrap;" vertex="1" parent="1">
            <mxGeometry x="1523" y="619" width="740" height="99" as="geometry" />
          </mxCell>
        </UserObject>
        <UserObject label="" tags="背景" id="NLWAjB_bUS7uM9UPZkxF-72">
          <mxCell style="vsdxID=270;rotation=90;fillColor=none;gradientColor=none;shape=stencil(UzV2Ls5ILEhVNTIoLinKz04tz0wpyVA1dlE1MsrMy0gtyiwBslSNXVWNndPyi1LTi/JL81Ig/IJEkEoQKze/DGRCBUSfAUiHkUElhGdoAOG7QZTmZOYhKTU21TNCUa1raEqaevOBUw7zGXmq8YYLumJLkpw9eFQb4g0SvAECZCASWFpmTg4kfSLLoydIoBAkMRu7AgA=);strokeColor=#000000;strokeWidth=3;flipH=1;flipV=1;points=[];labelBackgroundColor=none;rounded=0;html=1;whiteSpace=wrap;" vertex="1" parent="1">
            <mxGeometry x="1842" y="568" width="101" height="1" as="geometry" />
          </mxCell>
        </UserObject>
        <mxCell id="NLWAjB_bUS7uM9UPZkxF-73" value="&lt;div style=&quot;font-size: 1px&quot;&gt;&lt;/div&gt;" style="text;vsdxID=270;rotation=270.09;fillColor=none;gradientColor=none;strokeColor=none;strokeWidth=3;flipH=1;flipV=1;points=[];labelBackgroundColor=none;rounded=0;html=1;whiteSpace=wrap;verticalAlign=middle;align=center;;html=1;" vertex="1" parent="NLWAjB_bUS7uM9UPZkxF-72">
          <mxGeometry x="-1" y="1" width="101.38" as="geometry" />
        </mxCell>
        <UserObject label="" tags="背景" id="NLWAjB_bUS7uM9UPZkxF-74">
          <mxCell style="vsdxID=271;rotation=91;fillColor=none;gradientColor=none;shape=stencil(zZLLDsIgFES/hqWEV6mua/2PJqVCRGgo9fH3Qm6MtYuautHdDMwhuZdBvBp00yvEyBCDP6mraaNGfI8YM06rYGJSiNeIV50P6hj86FrwfZOTWZ39Jb9wA45kgpE7OErAHyBqjZtERYGlfItvKN3uMCtXMYUQWIpfI89JvwYWVzUPl6sH+E+C8g//vbijJF417Iy10OLp/by26Qgqz+sH);strokeColor=#000000;strokeWidth=3;flipH=1;flipV=1;points=[];labelBackgroundColor=none;rounded=0;html=1;whiteSpace=wrap;" vertex="1" parent="1">
            <mxGeometry x="1846" y="764" width="91" height="1" as="geometry" />
          </mxCell>
        </UserObject>
        <mxCell id="NLWAjB_bUS7uM9UPZkxF-75" value="&lt;div style=&quot;font-size: 1px&quot;&gt;&lt;/div&gt;" style="text;vsdxID=271;rotation=271.09;fillColor=none;gradientColor=none;strokeColor=none;strokeWidth=3;flipH=1;flipV=1;points=[];labelBackgroundColor=none;rounded=0;html=1;whiteSpace=wrap;verticalAlign=middle;align=center;;html=1;" vertex="1" parent="NLWAjB_bUS7uM9UPZkxF-74">
          <mxGeometry x="-1" y="1" width="91.71" as="geometry" />
        </mxCell>
        <UserObject label="" tags="背景" id="NLWAjB_bUS7uM9UPZkxF-76">
          <mxCell style="vsdxID=275;rotation=270;fillColor=none;gradientColor=none;shape=stencil(rZPbcoMgEIafhkt3kEVDrtP0PZgElQkVB2lj3z44mFbJ6LSZ3O3h+1mWZQke+kZ2ijDae2cv6qrPviH4RhjTbaOc9sEieCR4qKxTtbOf7Tn6nRzJ0fqwX+MJQ9TRUcHod/RyGv33iBrdzlAB5fMwpyDYHJfuFLJuwnkOKKLATQqkwHgMTVCRXhaKqciQyUH3mbNeem3bRWtGulploVxWGVkvUv1VqW4Wztf72eVQ4kr5vwo4CL4uuD/nHd8BZ/85fmMYjzAHJtb55KFTOBndHvbp6EoocDG65MCfz/CqyW00v/nDg/G7GZU2Ji7WPJ9uUgjFLcTjDQ==);strokeColor=#000000;strokeWidth=3;flipH=1;points=[[1,0.07,0]];labelBackgroundColor=none;rounded=0;html=1;whiteSpace=wrap;" vertex="1" parent="1">
            <mxGeometry x="1340" y="643" width="139" height="191" as="geometry" />
          </mxCell>
        </UserObject>
        <UserObject label="&lt;div style=&quot;font-size: 1px&quot;&gt;&lt;font style=&quot;font-size:33.87px;font-family:SimSun;color:#000000;direction:ltr;letter-spacing:0px;line-height:120%;opacity:1&quot;&gt;&lt;b&gt;鉴权&lt;br/&gt;&lt;/b&gt;&lt;/font&gt;&lt;/div&gt;" tags="背景" id="NLWAjB_bUS7uM9UPZkxF-77">
          <mxCell style="verticalAlign=middle;align=center;overflow=width;vsdxID=276;fillColor=none;gradientColor=none;shape=stencil(nZBLDoAgDERP0z3SIyjew0SURgSD+Lu9kMZoXLhwN9O+tukAlrNpJg1SzDH4QW/URgNYgZTkjA4UkwJUgGXng+6DX1zLfmoymdXo17xh5zmRJ6Q42BWCfc2oJfdAr+Yv+AP9Cb7OJ3H/2JG1HNGz/84klThPVCc=);strokeColor=none;points=[];labelBackgroundColor=none;rounded=0;html=1;whiteSpace=wrap;" vertex="1" parent="1">
            <mxGeometry x="1226" y="672" width="112" height="72" as="geometry" />
          </mxCell>
        </UserObject>
        <UserObject label="&lt;div style=&quot;font-size: 1px&quot;&gt;&lt;font style=&quot;font-size:33.87px;font-family:SimSun;color:#000000;direction:ltr;letter-spacing:0px;line-height:120%;opacity:1&quot;&gt;&lt;b&gt;客户端&lt;br/&gt;&lt;/b&gt;&lt;/font&gt;&lt;/div&gt;" tags="背景" id="NLWAjB_bUS7uM9UPZkxF-78">
          <mxCell style="verticalAlign=middle;align=center;overflow=width;vsdxID=278;fillColor=none;gradientColor=none;shape=stencil(nZBLDoAgDERP0z3SIyjew0SURgSD+Lu9kMZoXLhwN9O+tukAlrNpJg1SzDH4QW/URgNYgZTkjA4UkwJUgGXng+6DX1zLfmoymdXo17xh5zmRJ6Q42BWCfc2oJfdAr+Yv+AP9Cb7OJ3H/2JG1HNGz/84klThPVCc=);strokeColor=none;points=[];labelBackgroundColor=none;rounded=0;html=1;whiteSpace=wrap;" vertex="1" parent="1">
            <mxGeometry x="1677" y="435" width="140" height="66" as="geometry" />
          </mxCell>
        </UserObject>
        <UserObject label="&lt;div style=&quot;font-size: 1px&quot;&gt;&lt;/div&gt;" tags="背景" id="NLWAjB_bUS7uM9UPZkxF-79">
          <mxCell style="verticalAlign=middle;align=center;overflow=width;vsdxID=280;fillColor=none;gradientColor=none;shape=stencil(nZBLDoAgDERP0z3SIyjew0SURgSD+Lu9kMZoXLhwN9O+tukAlrNpJg1SzDH4QW/URgNYgZTkjA4UkwJUgGXng+6DX1zLfmoymdXo17xh5zmRJ6Q42BWCfc2oJfdAr+Yv+AP9Cb7OJ3H/2JG1HNGz/84klThPVCc=);dashed=1;strokeColor=#000000;strokeWidth=3;points=[[1,0.5,0],[0.5,0,0],[0.5,0.5,0],[0.5,0.5,0]];labelBackgroundColor=none;rounded=0;html=1;whiteSpace=wrap;" vertex="1" parent="1">
            <mxGeometry x="2163" y="2419" width="342" height="186" as="geometry" />
          </mxCell>
        </UserObject>
        <UserObject label="&lt;div style=&quot;font-size: 1px&quot;&gt;&lt;font style=&quot;font-size:33.87px;font-family:Calibri;color:#000000;direction:ltr;letter-spacing:0px;line-height:120%;opacity:1&quot;&gt;业务系统（章鱼）&lt;br/&gt;&lt;/font&gt;&lt;/div&gt;" tags="背景" id="NLWAjB_bUS7uM9UPZkxF-80">
          <mxCell style="verticalAlign=middle;align=center;overflow=width;vsdxID=281;fillColor=none;gradientColor=none;shape=stencil(nZFLDsIwDERP4y0KiYTEupQLcIKIGGIRkiot5XN60g5IpQsWzcqeebGlMZmq9bZh0qrtcrrwXVznyexIa4mes3SlIlOTqU4p8zmnW3ToG1tIrUaFHf6sB1orm48HeTE0s9r+vg0gTLmmftj+AKtgPT/TFPo90CBxgn7NRfAfdCE4W1+KMR8kJyEg3qk/z7NIuIWp3w==);strokeColor=#000000;strokeWidth=3;points=[[1,0.5,0],[0.5,0,0],[0.5,0.5,0],[0.5,0.5,0]];labelBackgroundColor=none;rounded=1;html=1;whiteSpace=wrap;" vertex="1" parent="1">
            <mxGeometry x="2523" y="2418" width="112" height="338" as="geometry" />
          </mxCell>
        </UserObject>
        <UserObject label="" tags="背景" id="NLWAjB_bUS7uM9UPZkxF-81">
          <mxCell style="vsdxID=284;fillColor=none;gradientColor=none;shape=stencil(nZFLDsIwDERP4y0KiYTEupQLcIKIGGIRkiot5XN60g5IpQsWzcqeebGlMZmq9bZh0qrtcrrwXVznyexIa4mes3SlIlOTqU4p8zmnW3ToG1tIrUaFHf6sB1orm48HeTE0s9r+vg0gTLmmftj+AKtgPT/TFPo90CBxgn7NRfAfdCE4W1+KMR8kJyEg3qk/z7NIuIWp3w==);strokeColor=#000000;strokeWidth=3;points=[[1,0.5,0],[0.5,0,0],[0.5,0.5,0],[0.5,0.5,0]];labelBackgroundColor=none;rounded=1;html=1;whiteSpace=wrap;" vertex="1" parent="1">
            <mxGeometry x="2343" y="2431" width="140" height="130" as="geometry" />
          </mxCell>
        </UserObject>
        <UserObject label="&lt;div style=&quot;font-size: 1px&quot;&gt;&lt;font style=&quot;font-size:33.87px;font-family:Calibri;color:#000000;direction:ltr;letter-spacing:0px;line-height:120%;opacity:1&quot;&gt;作业&lt;br/&gt; 实例（POD）&lt;br/&gt;&lt;/font&gt;&lt;/div&gt;" tags="背景" id="NLWAjB_bUS7uM9UPZkxF-82">
          <mxCell style="verticalAlign=middle;align=center;overflow=width;vsdxID=287;fillColor=#ffffff;gradientColor=none;shape=stencil(nZFLDsIwDERP4y0KiYTEupQLcIKIGGIRkiot5XN60g5IpQsWzcqeebGlMZmq9bZh0qrtcrrwXVznyexIa4mes3SlIlOTqU4p8zmnW3ToG1tIrUaFHf6sB1orm48HeTE0s9r+vg0gTLmmftj+AKtgPT/TFPo90CBxgn7NRfAfdCE4W1+KMR8kJyEg3qk/z7NIuIWp3w==);strokeColor=#000000;strokeWidth=3;points=[[1,0.5,0],[0.5,0,0],[0.5,0.5,0],[0.5,0.5,0]];labelBackgroundColor=none;rounded=1;html=1;whiteSpace=wrap;" vertex="1" parent="1">
            <mxGeometry x="2323" y="2448" width="140" height="130" as="geometry" />
          </mxCell>
        </UserObject>
        <UserObject label="&lt;div style=&quot;font-size: 1px&quot;&gt;&lt;font style=&quot;font-size:33.87px;font-family:Calibri;color:#000000;direction:ltr;letter-spacing:0px;line-height:120%;opacity:1&quot;&gt;网络代理&lt;br/&gt;&lt;/font&gt;&lt;/div&gt;" tags="背景" id="NLWAjB_bUS7uM9UPZkxF-83">
          <mxCell style="verticalAlign=middle;align=center;overflow=width;vsdxID=288;fillColor=#ffffff;gradientColor=none;shape=stencil(nZFLDsIwDERP4y0KiYTEupQLcIKIGGIRkiot5XN60g5IpQsWzcqeebGlMZmq9bZh0qrtcrrwXVznyexIa4mes3SlIlOTqU4p8zmnW3ToG1tIrUaFHf6sB1orm48HeTE0s9r+vg0gTLmmftj+AKtgPT/TFPo90CBxgn7NRfAfdCE4W1+KMR8kJyEg3qk/z7NIuIWp3w==);strokeColor=#000000;strokeWidth=3;points=[[1,0.5,0],[0.5,0,0],[0.5,0.5,0],[0.5,0.5,0]];labelBackgroundColor=none;rounded=1;html=1;whiteSpace=wrap;" vertex="1" parent="1">
            <mxGeometry x="2183" y="2448" width="112" height="130" as="geometry" />
          </mxCell>
        </UserObject>
        <UserObject label="" tags="背景" id="NLWAjB_bUS7uM9UPZkxF-84">
          <mxCell style="vsdxID=289;fillColor=none;gradientColor=none;shape=stencil(nZBLDoAgDERP0z3SIyjew0SURgSD+Lu9kMZoXLhwN9O+tukAlrNpJg1SzDH4QW/URgNYgZTkjA4UkwJUgGXng+6DX1zLfmoymdXo17xh5zmRJ6Q42BWCfc2oJfdAr+Yv+AP9Cb7OJ3H/2JG1HNGz/84klThPVCc=);strokeColor=#000000;strokeWidth=3;points=[[1,0.5,0],[0.5,0,0],[0.5,0.5,0],[0.5,0.5,0]];labelBackgroundColor=none;rounded=0;html=1;whiteSpace=wrap;" vertex="1" parent="1">
            <mxGeometry x="1423" y="2349" width="520" height="428" as="geometry" />
          </mxCell>
        </UserObject>
        <UserObject label="" tags="背景" id="NLWAjB_bUS7uM9UPZkxF-85">
          <mxCell style="vsdxID=290;fillColor=none;gradientColor=none;shape=stencil(xVRRDoIwDD3NPlnGpoLfqPdYdMDiZKRMxds7HBEGEqMx+Nf2vbV77VbEkirnpUCUVAb0UVzlweSIbRClssgFSGMtxLaIJakGkYE+Fwfnl7xhNtZJX5oMtTu3xtGiOUTJzQVCQh7+zrGVLPpsgunqh3QOe4tBd5fIsaGlLwkO2wS1n4A8GS0c8FpWAWjDjdSFA1tMcchEYGsFqeKZB1VXIcpR+KWYicoTSpa+kEWMY0/HuDWzCZkq/Zo8fB9fc4cdWg06tMYs9Fr0r0F/MuZ4/GAjf85T/2uOQb/529bo1kIqlXJbpY8P14gNuRXEtnc=);strokeColor=#000000;strokeWidth=3;points=[[1,0.5,0],[0.5,0.5,0],[0.5,0,0],[0.03,0.15,0],[0.97,0.15,0],[0.03,0.85,0],[0.97,0.85,0]];labelBackgroundColor=none;rounded=0;html=1;whiteSpace=wrap;" vertex="1" parent="1">
            <mxGeometry x="1431" y="2188" width="511" height="99" as="geometry" />
          </mxCell>
        </UserObject>
        <UserObject label="&lt;div style=&quot;font-size: 1px&quot;&gt;&lt;font style=&quot;font-size:33.87px;font-family:Calibri;color:#000000;direction:ltr;letter-spacing:0px;line-height:120%;opacity:1&quot;&gt;业务适配器&lt;br/&gt;&lt;/font&gt;&lt;/div&gt;" tags="背景" id="NLWAjB_bUS7uM9UPZkxF-86">
          <mxCell style="verticalAlign=middle;align=center;overflow=width;vsdxID=291;fillColor=none;gradientColor=none;shape=stencil(lZHdDsIgDIWfppcSoBp2P+d7LBkTIsLCmD9vL9gLpybT3Z22X5uTU8B6NO2gQfIxxXDSV9slA7gHKa03OtqUFWADWPch6mMMk++oHtpCFnUOl3LhRnuqYpUqW5LfqcOf1YFgZ/0MloIJ/BfeKKa2b/Bu1WnBF/Bv24u44KvM/Agli1ecvXWOvjGff8afW/Q6bB4=);strokeColor=#000000;strokeWidth=3;points=[[0.5,0.5,0],[1.08,0.5,0],[0.79,0.5,0],[0.21,0.5,0],[-0.08,0.5,0],[0.21,0,0],[0.79,0,0]];labelBackgroundColor=none;rounded=0;html=1;whiteSpace=wrap;" vertex="1" parent="1">
            <mxGeometry x="1487" y="2200" width="191" height="72" as="geometry" />
          </mxCell>
        </UserObject>
        <UserObject label="&lt;div style=&quot;font-size: 1px&quot;&gt;&lt;font style=&quot;font-size:33.87px;font-family:SimSun;color:#000000;direction:ltr;letter-spacing:0px;line-height:120%;opacity:1&quot;&gt;数据适配器&lt;br/&gt;&lt;/font&gt;&lt;/div&gt;" tags="背景" id="NLWAjB_bUS7uM9UPZkxF-87">
          <mxCell style="verticalAlign=middle;align=center;overflow=width;vsdxID=292;fillColor=none;gradientColor=none;shape=stencil(lZHdDsIgDIWfppcSoBp2P+d7LBkTIsLCmD9vL9gLpybT3Z22X5uTU8B6NO2gQfIxxXDSV9slA7gHKa03OtqUFWADWPch6mMMk++oHtpCFnUOl3LhRnuqYpUqW5LfqcOf1YFgZ/0MloIJ/BfeKKa2b/Bu1WnBF/Bv24u44KvM/Agli1ecvXWOvjGff8afW/Q6bB4=);strokeColor=#000000;strokeWidth=3;points=[[0.5,0.5,0],[1.08,0.5,0],[0.79,0.5,0],[0.21,0.5,0],[-0.08,0.5,0],[0.21,0,0],[0.79,0,0]];labelBackgroundColor=none;rounded=0;html=1;whiteSpace=wrap;" vertex="1" parent="1">
            <mxGeometry x="1715" y="2204" width="191" height="68" as="geometry" />
          </mxCell>
        </UserObject>
        <UserObject label="&lt;div style=&quot;font-size: 1px&quot;&gt;&lt;font style=&quot;font-size:33.87px;font-family:SimSun;color:#000000;direction:ltr;letter-spacing:0px;line-height:120%;opacity:1&quot;&gt;CPU/加速卡/内存/存储/网络&lt;br/&gt;&lt;/font&gt;&lt;/div&gt;" tags="背景" id="NLWAjB_bUS7uM9UPZkxF-88">
          <mxCell style="verticalAlign=middle;align=center;overflow=width;vsdxID=293;fillColor=none;gradientColor=none;shape=stencil(nZBLDoAgDERP0z3SIyjew0SURgSD+Lu9kMZoXLhwN9O+tukAlrNpJg1SzDH4QW/URgNYgZTkjA4UkwJUgGXng+6DX1zLfmoymdXo17xh5zmRJ6Q42BWCfc2oJfdAr+Yv+AP9Cb7OJ3H/2JG1HNGz/84klThPVCc=);strokeColor=#000000;strokeWidth=3;points=[[1,0.5,0],[0.5,0,0],[0.5,0.5,0],[0.5,0.5,0]];labelBackgroundColor=none;rounded=0;html=1;whiteSpace=wrap;" vertex="1" parent="1">
            <mxGeometry x="1586" y="2628" width="342" height="130" as="geometry" />
          </mxCell>
        </UserObject>
        <UserObject label="&lt;div style=&quot;font-size: 1px&quot;&gt;&lt;/div&gt;" tags="背景" id="NLWAjB_bUS7uM9UPZkxF-89">
          <mxCell style="verticalAlign=middle;align=center;overflow=width;vsdxID=294;rotation=270;fillColor=none;gradientColor=none;shape=stencil(vZLLDoIwEEW/pkub6UOFNeJ/kFBsI1JSio+/l2ZiRButbNzNdO6Z5E4vEcWgq14RDoN39qgupvaaiB3h3HRaOeOnioiSiKKxTh2cHbsa+74KylCd7DlsuCIHgeBww44B9nuUtqabSfma5tmLfJVnQDO2CJESqPxMbCUF/n8iZeRxmJ8OFe9nLLE/RjZLPSSA+CsWA0kXX280Fc8QNqZtMcPz+XtopycMvCjv);strokeColor=#000000;strokeWidth=3;flipH=1;flipV=1;points=[];labelBackgroundColor=none;rounded=0;html=1;whiteSpace=wrap;" vertex="1" parent="1">
            <mxGeometry x="1656" y="2318" width="61" height="1" as="geometry" />
          </mxCell>
        </UserObject>
        <UserObject label="&lt;div style=&quot;font-size: 1px&quot;&gt;&lt;font style=&quot;font-size:33.87px;font-family:SimSun;color:#000000;direction:ltr;letter-spacing:0px;line-height:120%;opacity:1&quot;&gt;&lt;b&gt;ModelArts&lt;/b&gt;&lt;/font&gt;&lt;/div&gt;" tags="背景" id="NLWAjB_bUS7uM9UPZkxF-90">
          <mxCell style="verticalAlign=middle;align=center;overflow=width;vsdxID=295;fillColor=none;gradientColor=none;shape=stencil(nZBLDoAgDERP0z3SIyjew0SURgSD+Lu9kMZoXLhwN9O+tukAlrNpJg1SzDH4QW/URgNYgZTkjA4UkwJUgGXng+6DX1zLfmoymdXo17xh5zmRJ6Q42BWCfc2oJfdAr+Yv+AP9Cb7OJ3H/2JG1HNGz/84klThPVCc=);strokeColor=none;strokeWidth=3;points=[];labelBackgroundColor=none;rounded=0;html=1;whiteSpace=wrap;" vertex="1" parent="1">
            <mxGeometry x="1431" y="2349" width="511" height="51" as="geometry" />
          </mxCell>
        </UserObject>
        <UserObject label="&lt;div style=&quot;font-size: 1px&quot;&gt;&lt;/div&gt;" tags="背景" id="NLWAjB_bUS7uM9UPZkxF-91">
          <mxCell style="verticalAlign=middle;align=center;overflow=width;vsdxID=296;fillColor=none;gradientColor=none;shape=stencil(nZBLDoAgDERP0z3SIyjew0SURgSD+Lu9kMZoXLhwN9O+tukAlrNpJg1SzDH4QW/URgNYgZTkjA4UkwJUgGXng+6DX1zLfmoymdXo17xh5zmRJ6Q42BWCfc2oJfdAr+Yv+AP9Cb7OJ3H/2JG1HNGz/84klThPVCc=);dashed=1;strokeColor=#000000;strokeWidth=3;points=[[1,0.5,0],[0.5,0,0],[0.5,0.5,0],[0.5,0.5,0]];labelBackgroundColor=none;rounded=0;html=1;whiteSpace=wrap;" vertex="1" parent="1">
            <mxGeometry x="1583" y="2420" width="342" height="186" as="geometry" />
          </mxCell>
        </UserObject>
        <UserObject label="&lt;div style=&quot;font-size: 1px&quot;&gt;&lt;font style=&quot;font-size:33.87px;font-family:Calibri;color:#000000;direction:ltr;letter-spacing:0px;line-height:120%;opacity:1&quot;&gt;业务系统（类脑云OS）&lt;br/&gt;&lt;/font&gt;&lt;/div&gt;" tags="背景" id="NLWAjB_bUS7uM9UPZkxF-92">
          <mxCell style="verticalAlign=middle;align=center;overflow=width;vsdxID=297;fillColor=none;gradientColor=none;shape=stencil(nZFLDsIwDERP4y0KiYTEupQLcIKIGGIRkiot5XN60g5IpQsWzcqeebGlMZmq9bZh0qrtcrrwXVznyexIa4mes3SlIlOTqU4p8zmnW3ToG1tIrUaFHf6sB1orm48HeTE0s9r+vg0gTLmmftj+AKtgPT/TFPo90CBxgn7NRfAfdCE4W1+KMR8kJyEg3qk/z7NIuIWp3w==);strokeColor=#000000;strokeWidth=3;points=[[1,0.5,0],[0.5,0,0],[0.5,0.5,0],[0.5,0.5,0]];labelBackgroundColor=none;rounded=1;html=1;whiteSpace=wrap;" vertex="1" parent="1">
            <mxGeometry x="1443" y="2419" width="112" height="338" as="geometry" />
          </mxCell>
        </UserObject>
        <UserObject label="" tags="背景" id="NLWAjB_bUS7uM9UPZkxF-93">
          <mxCell style="vsdxID=298;fillColor=none;gradientColor=none;shape=stencil(nZFLDsIwDERP4y0KiYTEupQLcIKIGGIRkiot5XN60g5IpQsWzcqeebGlMZmq9bZh0qrtcrrwXVznyexIa4mes3SlIlOTqU4p8zmnW3ToG1tIrUaFHf6sB1orm48HeTE0s9r+vg0gTLmmftj+AKtgPT/TFPo90CBxgn7NRfAfdCE4W1+KMR8kJyEg3qk/z7NIuIWp3w==);strokeColor=#000000;strokeWidth=3;points=[[1,0.5,0],[0.5,0,0],[0.5,0.5,0],[0.5,0.5,0]];labelBackgroundColor=none;rounded=1;html=1;whiteSpace=wrap;" vertex="1" parent="1">
            <mxGeometry x="1623" y="2442" width="140" height="130" as="geometry" />
          </mxCell>
        </UserObject>
        <UserObject label="&lt;div style=&quot;font-size: 1px&quot;&gt;&lt;font style=&quot;font-size:33.87px;font-family:Calibri;color:#000000;direction:ltr;letter-spacing:0px;line-height:120%;opacity:1&quot;&gt;作业&lt;br/&gt;实例（POD）&lt;br/&gt;&lt;/font&gt;&lt;/div&gt;" tags="背景" id="NLWAjB_bUS7uM9UPZkxF-94">
          <mxCell style="verticalAlign=middle;align=center;overflow=width;vsdxID=299;fillColor=#ffffff;gradientColor=none;shape=stencil(nZFLDsIwDERP4y0KiYTEupQLcIKIGGIRkiot5XN60g5IpQsWzcqeebGlMZmq9bZh0qrtcrrwXVznyexIa4mes3SlIlOTqU4p8zmnW3ToG1tIrUaFHf6sB1orm48HeTE0s9r+vg0gTLmmftj+AKtgPT/TFPo90CBxgn7NRfAfdCE4W1+KMR8kJyEg3qk/z7NIuIWp3w==);strokeColor=#000000;strokeWidth=3;points=[[1,0.5,0],[0.5,0,0],[0.5,0.5,0],[0.5,0.5,0]];labelBackgroundColor=none;rounded=1;html=1;whiteSpace=wrap;" vertex="1" parent="1">
            <mxGeometry x="1603" y="2458" width="140" height="130" as="geometry" />
          </mxCell>
        </UserObject>
        <UserObject label="&lt;div style=&quot;font-size: 1px&quot;&gt;&lt;font style=&quot;font-size:33.87px;font-family:Calibri;color:#000000;direction:ltr;letter-spacing:0px;line-height:120%;opacity:1&quot;&gt;网络代理&lt;br/&gt;&lt;/font&gt;&lt;/div&gt;" tags="背景" id="NLWAjB_bUS7uM9UPZkxF-95">
          <mxCell style="verticalAlign=middle;align=center;overflow=width;vsdxID=300;fillColor=#ffffff;gradientColor=none;shape=stencil(nZFLDsIwDERP4y0KiYTEupQLcIKIGGIRkiot5XN60g5IpQsWzcqeebGlMZmq9bZh0qrtcrrwXVznyexIa4mes3SlIlOTqU4p8zmnW3ToG1tIrUaFHf6sB1orm48HeTE0s9r+vg0gTLmmftj+AKtgPT/TFPo90CBxgn7NRfAfdCE4W1+KMR8kJyEg3qk/z7NIuIWp3w==);strokeColor=#000000;strokeWidth=3;points=[[1,0.5,0],[0.5,0,0],[0.5,0.5,0],[0.5,0.5,0]];labelBackgroundColor=none;rounded=1;html=1;whiteSpace=wrap;" vertex="1" parent="1">
            <mxGeometry x="1790" y="2448" width="112" height="130" as="geometry" />
          </mxCell>
        </UserObject>
        <UserObject label="&lt;div style=&quot;font-size: 1px&quot;&gt;&lt;font style=&quot;font-size:33.87px;font-family:Calibri;color:#000000;direction:ltr;letter-spacing:0px;line-height:120%;opacity:1&quot;&gt;GRPC&lt;/font&gt;&lt;/div&gt;" tags="背景" id="NLWAjB_bUS7uM9UPZkxF-99">
          <mxCell style="verticalAlign=middle;align=center;overflow=width;vsdxID=326;fillColor=none;gradientColor=none;shape=stencil(nZCxDsIwEEO/5vaQMLCX8gN8QUQOciIkVRoo8PWkNUhVB4ZuZ/tZJ5lM03vbMWnVl5yuPIgrnsyetJboOUupF5mWTHNOmS853aOD7mwltZocduhsRlorm09HeTO87Q4mWrf0GL89kSlEr29bQR+ABokz9Beugv+gK8HF+3pMe2ApCQFzzvPlftXC9qb9AA==);strokeColor=#000000;strokeWidth=3;points=[[1,0.5,0],[0.5,0,0],[0.5,0.5,0],[0.5,0.5,0]];labelBackgroundColor=none;rounded=1;html=1;whiteSpace=wrap;" vertex="1" parent="1">
            <mxGeometry x="1471" y="2002" width="1099" height="72" as="geometry" />
          </mxCell>
        </UserObject>
        <UserObject label="" tags="背景" id="NLWAjB_bUS7uM9UPZkxF-100">
          <mxCell style="vsdxID=327;rotation=90;fillColor=none;gradientColor=none;shape=stencil(vZLRDsIgDEW/po8mUGKmz3P+x5IxISIsDKf+vZDGOHkgkhjfbuG0uW0uiHZW/SQB2Ry8O8ubHoICcQBEbZX0OkQFogPRjs7Lk3dXO1A99YlM6uKWNOFOfSx1IHtQxRnVR0KNtisUdx/shm9r6KYEN/gvuGz6tf9X98hG8xof+1+x2Zlr2LLh4iGieAdq1MZQHtf/eQDjE4VXdE8=);strokeColor=#000000;strokeWidth=3;flipH=1;flipV=1;points=[];labelBackgroundColor=none;rounded=0;html=1;whiteSpace=wrap;" vertex="1" parent="1">
            <mxGeometry x="1533" y="2128" width="100" height="1" as="geometry" />
          </mxCell>
        </UserObject>
        <mxCell id="NLWAjB_bUS7uM9UPZkxF-101" value="&lt;div style=&quot;font-size: 1px&quot;&gt;&lt;/div&gt;" style="text;vsdxID=327;rotation=270.09;fillColor=none;gradientColor=none;strokeColor=none;strokeWidth=3;flipH=1;flipV=1;points=[];labelBackgroundColor=none;rounded=0;html=1;whiteSpace=wrap;verticalAlign=middle;align=center;;html=1;" vertex="1" parent="NLWAjB_bUS7uM9UPZkxF-100">
          <mxGeometry x="-1" y="1" width="100" as="geometry" />
        </mxCell>
        <UserObject label="" tags="背景" id="NLWAjB_bUS7uM9UPZkxF-102">
          <mxCell style="vsdxID=329;rotation=90;fillColor=none;gradientColor=none;shape=stencil(UzV2Ls5ILEhVNTIoLinKz04tz0wpyVA1dlE1MsrMy0gtyiwBslSNXVWNndPyi1LTi/JL81Ig/IJEkEoQKze/DGRCBUSfAUiHkUElhGdoAOG7QZTmZOYhKTUy1zNFUa1raEmaerzKzY3oqxy/42EhQVTIYBhOonJDairHCHYSleN3O95QATIQ6SwtMycHkkyR5dHTJVAIkqaNXQE=);strokeColor=#000000;strokeWidth=3;flipH=1;flipV=1;points=[];labelBackgroundColor=none;rounded=0;html=1;whiteSpace=wrap;" vertex="1" parent="1">
            <mxGeometry x="2232" y="2127" width="101" height="1" as="geometry" />
          </mxCell>
        </UserObject>
        <mxCell id="NLWAjB_bUS7uM9UPZkxF-103" value="&lt;div style=&quot;font-size: 1px&quot;&gt;&lt;/div&gt;" style="text;vsdxID=329;rotation=270.09;fillColor=none;gradientColor=none;strokeColor=none;strokeWidth=3;flipH=1;flipV=1;points=[];labelBackgroundColor=none;rounded=0;html=1;whiteSpace=wrap;verticalAlign=middle;align=center;;html=1;" vertex="1" parent="NLWAjB_bUS7uM9UPZkxF-102">
          <mxGeometry x="-1" y="1" width="101.81" as="geometry" />
        </mxCell>
        <UserObject label="" tags="背景" id="NLWAjB_bUS7uM9UPZkxF-104">
          <mxCell style="vsdxID=332;rotation=90;fillColor=none;gradientColor=none;shape=stencil(vZLNCsMgEISfZo8N6hYh5zR9j0BMlVoNJv17+ypLadqAVCi97eg3iw4D2Ey6GxUINs3BH9XV9LMG3IEQxmkVzBwnwBawGXxQh+DPric9dolM08lf0oYb+VhyCHYnxRnpPaHWuAWKrJLbN3zD60JDlpd1hfK/fP4Dzzi+ime9vZTnP+XX6Zfy+fdno4nDq3GDsZYKu7z/bGg8onZj+wA=);strokeColor=#000000;strokeWidth=3;flipH=1;flipV=1;points=[];labelBackgroundColor=none;rounded=0;html=1;whiteSpace=wrap;" vertex="1" parent="1">
            <mxGeometry x="2375" y="1961" width="86" height="1" as="geometry" />
          </mxCell>
        </UserObject>
        <mxCell id="NLWAjB_bUS7uM9UPZkxF-105" value="&lt;div style=&quot;font-size: 1px&quot;&gt;&lt;/div&gt;" style="text;vsdxID=332;rotation=270.09;fillColor=none;gradientColor=none;strokeColor=none;strokeWidth=3;flipH=1;flipV=1;points=[];labelBackgroundColor=none;rounded=0;html=1;whiteSpace=wrap;verticalAlign=middle;align=center;;html=1;" vertex="1" parent="NLWAjB_bUS7uM9UPZkxF-104">
          <mxGeometry x="-1" y="1" width="86.51" as="geometry" />
        </mxCell>
        <UserObject label="" tags="背景" id="NLWAjB_bUS7uM9UPZkxF-114">
          <mxCell style="vsdxID=343;rotation=90;fillColor=none;gradientColor=none;shape=stencil(vZLNCsMgEISfZo8N6hYh5zR9j0BMlVoNJv17+ypLadqAVCi97eg3iw4D2Ey6GxUINs3BH9XV9LMG3IEQxmkVzBwnwBawGXxQh+DPric9dolM08lf0oYb+VhyCHYnxRnpPaHWuAWKrJLbN3zD60JDlpd1hfK/fP4Dzzi+ime9vZTnP+XX6Zfy+fdno4nDq3GDsZYKu7z/bGg8onZj+wA=);strokeColor=#000000;strokeWidth=3;flipH=1;flipV=1;points=[];labelBackgroundColor=none;rounded=0;html=1;whiteSpace=wrap;" vertex="1" parent="1">
            <mxGeometry x="1519" y="1955" width="86" height="1" as="geometry" />
          </mxCell>
        </UserObject>
        <mxCell id="NLWAjB_bUS7uM9UPZkxF-115" value="&lt;div style=&quot;font-size: 1px&quot;&gt;&lt;/div&gt;" style="text;vsdxID=343;rotation=270.09;fillColor=none;gradientColor=none;strokeColor=none;strokeWidth=3;flipH=1;flipV=1;points=[];labelBackgroundColor=none;rounded=0;html=1;whiteSpace=wrap;verticalAlign=middle;align=center;;html=1;" vertex="1" parent="NLWAjB_bUS7uM9UPZkxF-114">
          <mxGeometry x="-1" y="1" width="86.51" as="geometry" />
        </mxCell>
        <UserObject label="&lt;div style=&quot;font-size: 1px&quot;&gt;&lt;font style=&quot;font-size:33.87px;font-family:SimSun;color:#000000;direction:ltr;letter-spacing:0px;line-height:120%;opacity:1&quot;&gt;&lt;b&gt;作业请求&lt;br/&gt;&lt;/b&gt;&lt;/font&gt;&lt;/div&gt;" tags="背景" id="NLWAjB_bUS7uM9UPZkxF-126">
          <mxCell style="verticalAlign=middle;align=center;overflow=width;vsdxID=355;fillColor=none;gradientColor=none;shape=stencil(nZBLDoAgDERP0z3SIyjew0SURgSD+Lu9kMZoXLhwN9O+tukAlrNpJg1SzDH4QW/URgNYgZTkjA4UkwJUgGXng+6DX1zLfmoymdXo17xh5zmRJ6Q42BWCfc2oJfdAr+Yv+AP9Cb7OJ3H/2JG1HNGz/84klThPVCc=);strokeColor=none;points=[];labelBackgroundColor=none;rounded=0;html=1;whiteSpace=wrap;" vertex="1" parent="1">
            <mxGeometry x="1715" y="738" width="148" height="50" as="geometry" />
          </mxCell>
        </UserObject>
        <UserObject label="" tags="背景" id="NLWAjB_bUS7uM9UPZkxF-127">
          <mxCell style="vsdxID=356;rotation=90;fillColor=none;gradientColor=none;shape=stencil(rZPbboMwDEC/Jo9YuTBIn7vuP6I2QLSMIJOu7d8vyGUF2qJt2psvx3Yc20xt+8Z0lkneRwzv9uQOsWHqlUnp2saii0liasfUtgpoawzH9kB6ZwZykD7C55DhTHF8iJD8QprgpL8R6l07QTUUf4elBF5McYP75MUrnnPgGwrAMX0BUpBphDSUYpb1BXR+RTJzdn2GIZroQjtrzhusbZYKZpU39czVn6ztJmbxvKNSQKEeV/8hr2Et//idI53Drx6zMot7WIIqn/P3/7zkF8NLw9aL4W2+TQ8X7bYO/zW5lf5XdzwJt9uonPd0WlP/8paSie5Q7b4A);dashed=1;dashPattern=2.00 2.00;strokeColor=#000000;strokeWidth=3;points=[[1,0.04,0]];labelBackgroundColor=none;rounded=0;html=1;whiteSpace=wrap;" vertex="1" parent="1">
            <mxGeometry x="2366" y="565" width="139" height="345" as="geometry" />
          </mxCell>
        </UserObject>
        <UserObject label="&lt;div style=&quot;font-size: 1px&quot;&gt;&lt;font style=&quot;font-size:33.87px;font-family:SimSun;color:#000000;direction:ltr;letter-spacing:0px;line-height:120%;opacity:1&quot;&gt;&lt;b&gt;后台管理操作&lt;br/&gt;&lt;/b&gt;&lt;/font&gt;&lt;/div&gt;" tags="背景" id="NLWAjB_bUS7uM9UPZkxF-128">
          <mxCell style="verticalAlign=middle;align=center;overflow=width;vsdxID=357;fillColor=none;gradientColor=none;shape=stencil(nZBLDoAgDERP0z3SIyjew0SURgSD+Lu9kMZoXLhwN9O+tukAlrNpJg1SzDH4QW/URgNYgZTkjA4UkwJUgGXng+6DX1zLfmoymdXo17xh5zmRJ6Q42BWCfc2oJfdAr+Yv+AP9Cb7OJ3H/2JG1HNGz/84klThPVCc=);strokeColor=none;points=[];labelBackgroundColor=none;rounded=0;html=1;whiteSpace=wrap;" vertex="1" parent="1">
            <mxGeometry x="2423" y="718" width="140" height="66" as="geometry" />
          </mxCell>
        </UserObject>
        <UserObject label="" tags="流程图" id="NLWAjB_bUS7uM9UPZkxF-129">
          <mxCell style="vsdxID=361;fillColor=none;gradientColor=none;strokeColor=none;strokeWidth=2;points=[[0,0.5,0],[0.5,1,0],[1,0.5,0],[0.5,0,0]];labelBackgroundColor=none;rounded=0;html=1;whiteSpace=wrap;" vertex="1" parent="1">
            <mxGeometry x="2912" y="2070" width="100" height="68" as="geometry" />
          </mxCell>
        </UserObject>
        <mxCell id="NLWAjB_bUS7uM9UPZkxF-130" style="vsdxID=362;fillColor=none;gradientColor=none;shape=stencil(tVbbUhpBEP0aHpnqy/TtMWXMf1CKSoWAtWDUv0/jLghDBA0VnobpPjN9+nJmR3y1epg8TkcEq3W3/Dl9nt2uH0b8fUQ0WzxMu9k6VyO+HvHV3bKb3nfLp8Vt//9xsvHcrH4tf29OeOlx6gVtgyJ47XeQC9e3nR89YNLdpLUbAFIsev9uAGjR4YTBJbAwf3AmvIwnL7PVuFuuJ+vZctHbobfNJ939dJz3je/mk/sB2ptWz9Pp4942XBThKdb/JcLDpAcV1IPrGQrFPmA+W+xXyQrYacDNU9dfgQNECikDk3MYDtRecQ+NaQKvghCxpU4DmIsCY1oVTGUA0w4coaI1KjhFhA9gHsBUyNQM3IFDALZUBzsne+dazVFxyMMbCfj2Nx7ZTMJMAEg1AkAaKlwAwqGKkWs0PKBIoJhETa75qw2VWkBDMWlUqg0NSBtJJJBaBplbx9AQTrOfYSBRkoASZM4CsAlfS+Yx6ZlL5aYMiSS2Chlc2A65jd2KSxCEiJDoYfAbZG2CjsLYhHrYZfugfse4iJxoSy14kT8CfOydU+J2ifuZaLan/aN7k8/jur8DcFcxIvJwyeYZsLtaRx7nopIF1WyFptaSdwEGBFpYU+vwnBD0HCnMNt6mgHfjYU4uppmgeq5Vw4oyezabUW01g4qlqlmtNQvZRq/FkLMdqaqlJEQTPxavhq45ijmEANRQkKIKaZZkiNRQwJyC0Frdc0JwO8QnWNRUL0d2S+GjVi8gKWZtOEuQIhWNYgSXuilGqg1qtCP3JpuRkugpRymb3NDY03XegzTx5vr9Ob6bzef9a75rpI/eaoui29x8YiCO3c2L6z6g+Ra4dJxFmpE4eva+NqHHgDM3fGmgPyF3B5VqqpSL9iMrt/oPNL7+Aw==);strokeColor=#000000;strokeWidth=2;points=[[0,0.5,0],[0.5,1,0],[1,0.5,0],[0.5,0,0]];labelBackgroundColor=none;rounded=0;html=1;whiteSpace=wrap;" vertex="1" parent="NLWAjB_bUS7uM9UPZkxF-129">
          <mxGeometry x="36" y="18" width="63" height="49" as="geometry" />
        </mxCell>
        <mxCell id="NLWAjB_bUS7uM9UPZkxF-131" style="vsdxID=363;fillColor=none;gradientColor=none;shape=stencil(nZXRUhsxDEW/Jq8aybJk6bFD6X8wJZRMKWECtPD3vctumtihUDqT2dmsJVvn6tpe6dn99cXdelX4/mG3/b7+tbl8uF7p51Upm9vr9W7zgLeVnq/07Gq7W3/bbR9vL+f/dxdT5PT2Y/tzmuFpzkuhalNW4ef5S1DTlw9f5vivj7s5QQ4ZNSzdMnQJ5edl0MnDRdJTU5hZ5uGnsuQyRQRz5aZNfMldBitFsaYlMbV5Zl1ydakrKWuVVsKkZS65y6CSVtUiWqZEzHAg4E+vQGCyko2FazHGT3qMQpgovBVu1vwEI4Kqp3trUiNajwF5IkTCa2RVaNAGjkY2ragBpQYMpmR3L2psAUgt73E4WbCiRGs1S0/BoLDCzgaBJJOjDhxGJqFpIly09hxM/KIPSxXTTCvoy4BSSUeCoeCbze2R28RI93KdxJ/SiVLDA2JZgnCg61mkUBH3ippRtY8sntAcCAoVoOvQExFiabBsWitaeiShsIAhOWBa9JP1naYIk2T1SPGpKXzqLseEjADsETyy9SiJrqCdUD6nWnsUxQ4T5TR0vRic7j1KEleQAjThX+lRsMVqTv3EBq5/fP2GvQh1aIPRsfVqjCAO1TybYrXqA0SQ4hywwDay0AGiwZk4PYwbXD4JNBoLyX3l/an0irWOUpbijJZpF3f18acH34cTxpPy5GTd77clvhXiNxZo5O0j8dwXg8bHvwbjaP576H7wv4JRhsibIr4nCl4Ol9XV5uZmvuuOx8fLDZ/mi1HPfwM=);strokeColor=#000000;strokeWidth=2;points=[[0,0.5,0],[0.5,1,0],[1,0.5,0],[0.5,0,0]];labelBackgroundColor=none;rounded=0;html=1;whiteSpace=wrap;" vertex="1" parent="NLWAjB_bUS7uM9UPZkxF-129">
          <mxGeometry width="63" height="46" as="geometry" />
        </mxCell>
        <mxCell id="NLWAjB_bUS7uM9UPZkxF-132" style="vsdxID=364;fillColor=none;gradientColor=none;shape=stencil(pZLBEoIgEIafhiuzLBV4NnsPJzGZTBzUsrdPBizh4KXb8vMt882yhOdDU/aKIAyjNXf10tXYEH4miLprlNXjUhFeEJ7XxqqbNVNX+XNfOtJVD/N0L8y+jwG4HoR3fL54uNXdDszpSW7p62T92yzl2doA6JMZfZJlVLIAhYhRIQLEAySolAEK0Y4lUoaRJuw6UnGMJSE2ZF/nVRAoP8SCEMulc4n9/hh4Ai/F719r3bZ+Lbb36R4skd8hXnwA);strokeColor=#FFFFFF;strokeWidth=2;points=[[0,0.5,0],[0.5,1,0],[1,0.5,0],[0.5,0,0]];labelBackgroundColor=none;rounded=0;html=1;whiteSpace=wrap;" vertex="1" parent="NLWAjB_bUS7uM9UPZkxF-129">
          <mxGeometry x="8" y="3" width="46" height="24" as="geometry" />
        </mxCell>
        <mxCell id="NLWAjB_bUS7uM9UPZkxF-133" style="vsdxID=365;fillColor=none;gradientColor=none;shape=stencil(UzV2Ls5ILEhVNTIoLinKz04tz0wpyVA1dlE1MsrMy0gtyiwBslSNXVWNndPyi1LTi/JL81Ig/IJEkEoQKze/DGRCBUSfqZ6BCUiTkUElRMAAzHODqM3JzENSa4Ci0NAAj1KYJFGKLU30LM2IdQR+BwMZCJ+mZebkIMughwlQCBKexq4A);strokeColor=#FFFFFF;strokeWidth=2;points=[[0,0.5,0],[0.5,1,0],[1,0.5,0],[0.5,0,0]];labelBackgroundColor=none;rounded=0;html=1;whiteSpace=wrap;" vertex="1" parent="NLWAjB_bUS7uM9UPZkxF-129">
          <mxGeometry x="5" y="36" width="52" height="4" as="geometry" />
        </mxCell>
        <mxCell id="NLWAjB_bUS7uM9UPZkxF-134" value="&lt;div style=&quot;font-size: 1px&quot;&gt;&lt;font style=&quot;font-size:33.87px;font-family:SimSun;color:#000000;direction:ltr;letter-spacing:0px;line-height:120%;opacity:1&quot;&gt;存储文件管理工具&lt;br/&gt;&lt;/font&gt;&lt;/div&gt;" style="text;vsdxID=361;fillColor=none;gradientColor=none;strokeColor=none;strokeWidth=2;points=[[0,0.5,0],[0.5,1,0],[1,0.5,0],[0.5,0,0]];labelBackgroundColor=none;rounded=0;html=1;whiteSpace=wrap;verticalAlign=middle;align=center;overflow=width;;html=1;" vertex="1" parent="NLWAjB_bUS7uM9UPZkxF-129">
          <mxGeometry x="-75" y="68" width="250" height="97.02" as="geometry" />
        </mxCell>
        <UserObject label="" tags="背景" id="NLWAjB_bUS7uM9UPZkxF-135">
          <mxCell style="vsdxID=368;fillColor=none;gradientColor=none;strokeColor=none;strokeWidth=3;points=[[0.5,0.5,0]];labelBackgroundColor=none;rounded=0;html=1;whiteSpace=wrap;" vertex="1" parent="1">
            <mxGeometry x="2595" y="1962" width="240" height="303" as="geometry" />
          </mxCell>
        </UserObject>
        <mxCell id="NLWAjB_bUS7uM9UPZkxF-136" style="vsdxID=369;fillColor=none;gradientColor=none;shape=stencil(lZZRc9sgDMc/jV91lgQInrvue/TWdPEtS3ppunXffng2wsgXentzFIkfSH8JBn54Oz69HgYa327Xy4/D7+n5dhz4y0A0nY+H63TLXwM/Dvzwcrkevl8v7+fn5ffr0+w5f/28/JpX+FjiYgCKcxSNfxYLCZD7Z/m6BHx7vy4RuIZ4ELeGrCZMy+8PWl0QXHFZTUjgw+rFi0kCoKxebL3uwMVBEAPfrLzChIGC4TOgwSMki3cwcg8fErjU4j0kbunBAfuWPrZo70CwRY/gYo/sCDCag+uJSEvHNu0jJNfCKW8vtHCKwKlHz9sTc25K4GPLx1izs5qYIJmyowBSy2cB1y07Bq1x4ecYNmVHU/PZxbA9uD27W3KpIsXdsqW8ELlFO4HYonOBjdpCTmoXPbZc0SxVodfNldZzgDbh+0NXr/sJN/neLkxaSTF6i1zbgVUV0Rk8g6dP9Oa94XtNoOqdqioLP+h8UL37MtAqX73u8QUsfrNwwecOsHgPwbd4RiC/O37qjlh2tWKrKTGw4bvc22bO4GgmjYtlrig9JaBu8n0Ah4YedUM65RBsvyWvsMIPvBuyaSwSuTdks9LMBZNjorlj5imLhr/xYvXSkVT5sX/HcJ3fpfpZwyb7IlVWtfeiEZ9EMMXPFupO+uwg3OLnGHP8bEqm9bPJtJ7kUu/o3dzn5IS0g5txpypTMul9r12vPuXOw09EXyPKlVeHQCEnt7vYOcuJWvb2UVOGgH3VnKbz/z2D8kd9RL1Mp9PyBtv+bx9d2bQ82PjxLw==);strokeColor=#000000;strokeWidth=3;points=[[0.5,0.5,0]];labelBackgroundColor=none;rounded=0;html=1;whiteSpace=wrap;" vertex="1" parent="NLWAjB_bUS7uM9UPZkxF-135">
          <mxGeometry y="64" width="240" height="174" as="geometry" />
        </mxCell>
        <UserObject label="&lt;div style=&quot;font-size: 1px&quot;&gt;&lt;font style=&quot;font-size:33.87px;font-family:SimSun;color:#000000;direction:ltr;letter-spacing:0px;line-height:120%;opacity:1&quot;&gt;&lt;b&gt;互联网/高速专线/内网&lt;br/&gt;&lt;/b&gt;&lt;/font&gt;&lt;/div&gt;" tags="背景" id="NLWAjB_bUS7uM9UPZkxF-137">
          <mxCell style="verticalAlign=middle;align=center;overflow=width;vsdxID=370;fillColor=none;gradientColor=none;shape=stencil(nZBLDoAgDERP0z3SIyjew0SURgSD+Lu9kMZoXLhwN9O+tukAlrNpJg1SzDH4QW/URgNYgZTkjA4UkwJUgGXng+6DX1zLfmoymdXo17xh5zmRJ6Q42BWCfc2oJfdAr+Yv+AP9Cb7OJ3H/2JG1HNGz/84klThPVCc=);strokeColor=none;points=[];labelBackgroundColor=none;rounded=0;html=1;whiteSpace=wrap;" vertex="1" parent="1">
            <mxGeometry x="2634" y="2109" width="184" height="54" as="geometry" />
          </mxCell>
        </UserObject>
        <UserObject label="&lt;div style=&quot;font-size: 1px&quot;&gt;&lt;font style=&quot;font-size:33.87px;font-family:SimSun;color:#000000;direction:ltr;letter-spacing:0px;line-height:120%;opacity:1&quot;&gt;&lt;b&gt;存储数据文件&lt;br/&gt;&lt;/b&gt;&lt;/font&gt;&lt;/div&gt;" tags="背景" id="NLWAjB_bUS7uM9UPZkxF-138">
          <mxCell style="verticalAlign=middle;align=center;overflow=width;vsdxID=377;fillColor=none;gradientColor=none;shape=stencil(nZBLDoAgDERP0z3SIyjew0SURgSD+Lu9kMZoXLhwN9O+tukAlrNpJg1SzDH4QW/URgNYgZTkjA4UkwJUgGXng+6DX1zLfmoymdXo17xh5zmRJ6Q42BWCfc2oJfdAr+Yv+AP9Cb7OJ3H/2JG1HNGz/84klThPVCc=);strokeColor=none;points=[];labelBackgroundColor=none;rounded=0;html=1;whiteSpace=wrap;" vertex="1" parent="1">
            <mxGeometry x="2318" y="2086" width="264" height="51" as="geometry" />
          </mxCell>
        </UserObject>
        <UserObject label="&lt;div style=&quot;font-size: 1px&quot;&gt;&lt;font style=&quot;font-size:33.87px;font-family:SimSun;color:#000000;direction:ltr;letter-spacing:0px;line-height:120%;opacity:1&quot;&gt;&lt;b&gt;作业/存储管理请求&lt;br/&gt;&lt;/b&gt;&lt;/font&gt;&lt;/div&gt;" tags="背景" id="NLWAjB_bUS7uM9UPZkxF-139">
          <mxCell style="verticalAlign=middle;align=center;overflow=width;vsdxID=378;fillColor=none;gradientColor=none;shape=stencil(nZBLDoAgDERP0z3SIyjew0SURgSD+Lu9kMZoXLhwN9O+tukAlrNpJg1SzDH4QW/URgNYgZTkjA4UkwJUgGXng+6DX1zLfmoymdXo17xh5zmRJ6Q42BWCfc2oJfdAr+Yv+AP9Cb7OJ3H/2JG1HNGz/84klThPVCc=);strokeColor=none;points=[];labelBackgroundColor=none;rounded=0;html=1;whiteSpace=wrap;" vertex="1" parent="1">
            <mxGeometry x="1236" y="2104" width="341" height="51" as="geometry" />
          </mxCell>
        </UserObject>
        <UserObject label="" tags="背景" id="NLWAjB_bUS7uM9UPZkxF-140">
          <mxCell style="vsdxID=384;fillColor=#5b9bd5;gradientColor=none;shape=stencil(tZLRDoIwDEW/Zo8zYwuKz4j/sUiBRdxINwX/3i2DCCQkGuNb23vaLt0lIreN7IBwZh2aK/SqdA0RJ8K50g2gcj4ioiAirwxCjeauy5h3MpAhuplHmDDEvoSx0MPZc5mfIyzx4jWcYCF2WRZ5nBr2u4OIpZFKlxOPYzpQOShL0TjplNFRHLVWYg3UL6NVK+uFZHuAblZO5s9rlYbNxSnbRj8nvxiark/56yXXn/PHS/rgbZHorrm2tpMvRSuK4gU=);strokeColor=#000000;strokeWidth=3;points=[[0.5,0.18,0],[0.5,0.5,0],[0.5,0.82,0]];labelBackgroundColor=none;rounded=0;html=1;whiteSpace=wrap;" vertex="1" parent="1">
            <mxGeometry x="923" y="1008" width="40" height="199" as="geometry" />
          </mxCell>
        </UserObject>
        <UserObject label="&lt;div style=&quot;font-size: 1px&quot;&gt;&lt;font style=&quot;font-size:33.87px;font-family:SimSun;color:#000000;direction:ltr;letter-spacing:0px;line-height:120%;opacity:1&quot;&gt;微服务基础框架&lt;br/&gt;&lt;/font&gt;&lt;/div&gt;" tags="背景" id="NLWAjB_bUS7uM9UPZkxF-141">
          <mxCell style="verticalAlign=middle;align=center;overflow=width;vsdxID=385;fillColor=none;gradientColor=none;shape=stencil(nZBLDoAgDERP0z3SIyjew0SURgSD+Lu9kMZoXLhwN9O+tukAlrNpJg1SzDH4QW/URgNYgZTkjA4UkwJUgGXng+6DX1zLfmoymdXo17xh5zmRJ6Q42BWCfc2oJfdAr+Yv+AP9Cb7OJ3H/2JG1HNGz/84klThPVCc=);strokeColor=none;points=[];labelBackgroundColor=none;rounded=0;html=1;whiteSpace=wrap;" vertex="1" parent="1">
            <mxGeometry x="876" y="929" width="40" height="306" as="geometry" />
          </mxCell>
        </UserObject>
        <mxCell id="NLWAjB_bUS7uM9UPZkxF-142" vertex="1" parent="1">
          <mxGeometry x="2603" y="2138" as="geometry" />
        </mxCell>
        <UserObject label="" tags="连接线" id="NLWAjB_bUS7uM9UPZkxF-143">
          <mxCell style="vsdxID=374;edgeStyle=none;startArrow=block;endArrow=block;startSize=5;endSize=5;strokeWidth=3;strokeColor=#000000;spacingTop=0;spacingBottom=0;spacingLeft=0;spacingRight=0;verticalAlign=middle;html=1;labelBackgroundColor=#ffffff;rounded=0;exitX=0.21195652173913043;exitY=0;exitDx=0;exitDy=0;exitPerimeter=0;" edge="1" parent="1" source="NLWAjB_bUS7uM9UPZkxF-15" target="NLWAjB_bUS7uM9UPZkxF-142">
            <mxGeometry relative="1" as="geometry">
              <mxPoint x="-1" as="offset" />
              <Array as="points">
                <mxPoint x="2482" y="2138" />
              </Array>
            </mxGeometry>
          </mxCell>
        </UserObject>
        <mxCell id="NLWAjB_bUS7uM9UPZkxF-144" vertex="1" parent="1">
          <mxGeometry x="2603" y="2138" as="geometry" />
        </mxCell>
        <UserObject label="" tags="连接线" id="NLWAjB_bUS7uM9UPZkxF-145">
          <mxCell style="vsdxID=373;edgeStyle=none;startArrow=block;endArrow=block;startSize=5;endSize=5;strokeWidth=3;strokeColor=#000000;spacingTop=0;spacingBottom=0;spacingLeft=0;spacingRight=0;verticalAlign=middle;html=1;labelBackgroundColor=#ffffff;rounded=0;exitX=0.7905759162303665;exitY=0;exitDx=0;exitDy=0;exitPerimeter=0;" edge="1" parent="1" source="NLWAjB_bUS7uM9UPZkxF-87" target="NLWAjB_bUS7uM9UPZkxF-144">
            <mxGeometry relative="1" as="geometry">
              <mxPoint as="offset" />
              <Array as="points">
                <mxPoint x="1866" y="2138.1" />
              </Array>
            </mxGeometry>
          </mxCell>
        </UserObject>
        <mxCell id="NLWAjB_bUS7uM9UPZkxF-146" vertex="1" parent="1">
          <mxGeometry x="2813" y="2104" as="geometry" />
        </mxCell>
        <UserObject label="" tags="连接线" id="NLWAjB_bUS7uM9UPZkxF-147">
          <mxCell style="vsdxID=371;edgeStyle=none;startArrow=block;endArrow=block;startSize=5;endSize=5;strokeWidth=3;strokeColor=#000000;spacingTop=0;spacingBottom=0;spacingLeft=0;spacingRight=0;verticalAlign=middle;html=1;labelBackgroundColor=#ffffff;rounded=0;entryX=0;entryY=0.5;entryDx=0;entryDy=0;entryPerimeter=0;" edge="1" parent="1" source="NLWAjB_bUS7uM9UPZkxF-146" target="NLWAjB_bUS7uM9UPZkxF-129">
            <mxGeometry relative="1" as="geometry">
              <mxPoint as="offset" />
              <Array as="points" />
            </mxGeometry>
          </mxCell>
        </UserObject>
        <UserObject label="" tags="连接线" id="NLWAjB_bUS7uM9UPZkxF-154">
          <mxCell style="vsdxID=148;edgeStyle=none;startArrow=none;endArrow=block;startSize=5;endSize=5;strokeWidth=3;strokeColor=#000000;spacingTop=0;spacingBottom=0;spacingLeft=0;spacingRight=0;verticalAlign=middle;html=1;labelBackgroundColor=#ffffff;rounded=1;exitX=0.5034965034965035;exitY=0;exitDx=0;exitDy=0;exitPerimeter=0;entryX=0.5034965034965035;entryY=1;entryDx=0;entryDy=0;entryPerimeter=0;" edge="1" parent="1" source="NLWAjB_bUS7uM9UPZkxF-23" target="NLWAjB_bUS7uM9UPZkxF-24">
            <mxGeometry relative="1" as="geometry">
              <mxPoint x="10" as="offset" />
              <Array as="points" />
            </mxGeometry>
          </mxCell>
        </UserObject>
      </root>
    </mxGraphModel>
  </diagram>
</mxfile>
